<?xml version="1.0" encoding="utf-8" standalone="no"?>
<!DOCTYPE svg PUBLIC "-//W3C//DTD SVG 1.1//EN"
  "http://www.w3.org/Graphics/SVG/1.1/DTD/svg11.dtd">
<!-- Created with matplotlib (https://matplotlib.org/) -->
<svg height="345.6pt" version="1.1" viewBox="0 0 460.8 345.6" width="460.8pt" xmlns="http://www.w3.org/2000/svg" xmlns:xlink="http://www.w3.org/1999/xlink">
 <metadata>
  <rdf:RDF xmlns:cc="http://creativecommons.org/ns#" xmlns:dc="http://purl.org/dc/elements/1.1/" xmlns:rdf="http://www.w3.org/1999/02/22-rdf-syntax-ns#">
   <cc:Work>
    <dc:type rdf:resource="http://purl.org/dc/dcmitype/StillImage"/>
    <dc:date>2020-12-16T16:12:42.829009</dc:date>
    <dc:format>image/svg+xml</dc:format>
    <dc:creator>
     <cc:Agent>
      <dc:title>Matplotlib v3.3.3, https://matplotlib.org/</dc:title>
     </cc:Agent>
    </dc:creator>
   </cc:Work>
  </rdf:RDF>
 </metadata>
 <defs>
  <style type="text/css">*{stroke-linecap:butt;stroke-linejoin:round;}</style>
 </defs>
 <g id="figure_1">
  <g id="patch_1">
   <path d="M 0 345.6 
L 460.8 345.6 
L 460.8 0 
L 0 0 
z
" style="fill:#ffffff;"/>
  </g>
  <g id="axes_1">
   <g id="patch_2">
    <path d="M 57.6 307.584 
L 414.72 307.584 
L 414.72 41.472 
L 57.6 41.472 
z
" style="fill:#ffffff;"/>
   </g>
   <g id="matplotlib.axis_1">
    <g id="xtick_1">
     <g id="line2d_1">
      <path clip-path="url(#pc608141c62)" d="M 73.832727 307.584 
L 73.832727 41.472 
" style="fill:none;stroke:#b0b0b0;stroke-linecap:square;stroke-width:0.8;"/>
     </g>
     <g id="line2d_2">
      <defs>
       <path d="M 0 0 
L 0 3.5 
" id="mf4ebfe2e19" style="stroke:#000000;stroke-width:0.8;"/>
      </defs>
      <g>
       <use style="stroke:#000000;stroke-width:0.8;" x="73.832727" xlink:href="#mf4ebfe2e19" y="307.584"/>
      </g>
     </g>
     <g id="text_1">
      <!-- 0 -->
      <g transform="translate(70.651477 322.182437)scale(0.1 -0.1)">
       <defs>
        <path d="M 31.78125 66.40625 
Q 24.171875 66.40625 20.328125 58.90625 
Q 16.5 51.421875 16.5 36.375 
Q 16.5 21.390625 20.328125 13.890625 
Q 24.171875 6.390625 31.78125 6.390625 
Q 39.453125 6.390625 43.28125 13.890625 
Q 47.125 21.390625 47.125 36.375 
Q 47.125 51.421875 43.28125 58.90625 
Q 39.453125 66.40625 31.78125 66.40625 
z
M 31.78125 74.21875 
Q 44.046875 74.21875 50.515625 64.515625 
Q 56.984375 54.828125 56.984375 36.375 
Q 56.984375 17.96875 50.515625 8.265625 
Q 44.046875 -1.421875 31.78125 -1.421875 
Q 19.53125 -1.421875 13.0625 8.265625 
Q 6.59375 17.96875 6.59375 36.375 
Q 6.59375 54.828125 13.0625 64.515625 
Q 19.53125 74.21875 31.78125 74.21875 
z
" id="DejaVuSans-48"/>
       </defs>
       <use xlink:href="#DejaVuSans-48"/>
      </g>
     </g>
    </g>
    <g id="xtick_2">
     <g id="line2d_3">
      <path clip-path="url(#pc608141c62)" d="M 132.860826 307.584 
L 132.860826 41.472 
" style="fill:none;stroke:#b0b0b0;stroke-linecap:square;stroke-width:0.8;"/>
     </g>
     <g id="line2d_4">
      <g>
       <use style="stroke:#000000;stroke-width:0.8;" x="132.860826" xlink:href="#mf4ebfe2e19" y="307.584"/>
      </g>
     </g>
     <g id="text_2">
      <!-- 100 -->
      <g transform="translate(123.317076 322.182437)scale(0.1 -0.1)">
       <defs>
        <path d="M 12.40625 8.296875 
L 28.515625 8.296875 
L 28.515625 63.921875 
L 10.984375 60.40625 
L 10.984375 69.390625 
L 28.421875 72.90625 
L 38.28125 72.90625 
L 38.28125 8.296875 
L 54.390625 8.296875 
L 54.390625 0 
L 12.40625 0 
z
" id="DejaVuSans-49"/>
       </defs>
       <use xlink:href="#DejaVuSans-49"/>
       <use x="63.623047" xlink:href="#DejaVuSans-48"/>
       <use x="127.246094" xlink:href="#DejaVuSans-48"/>
      </g>
     </g>
    </g>
    <g id="xtick_3">
     <g id="line2d_5">
      <path clip-path="url(#pc608141c62)" d="M 191.888926 307.584 
L 191.888926 41.472 
" style="fill:none;stroke:#b0b0b0;stroke-linecap:square;stroke-width:0.8;"/>
     </g>
     <g id="line2d_6">
      <g>
       <use style="stroke:#000000;stroke-width:0.8;" x="191.888926" xlink:href="#mf4ebfe2e19" y="307.584"/>
      </g>
     </g>
     <g id="text_3">
      <!-- 200 -->
      <g transform="translate(182.345176 322.182437)scale(0.1 -0.1)">
       <defs>
        <path d="M 19.1875 8.296875 
L 53.609375 8.296875 
L 53.609375 0 
L 7.328125 0 
L 7.328125 8.296875 
Q 12.9375 14.109375 22.625 23.890625 
Q 32.328125 33.6875 34.8125 36.53125 
Q 39.546875 41.84375 41.421875 45.53125 
Q 43.3125 49.21875 43.3125 52.78125 
Q 43.3125 58.59375 39.234375 62.25 
Q 35.15625 65.921875 28.609375 65.921875 
Q 23.96875 65.921875 18.8125 64.3125 
Q 13.671875 62.703125 7.8125 59.421875 
L 7.8125 69.390625 
Q 13.765625 71.78125 18.9375 73 
Q 24.125 74.21875 28.421875 74.21875 
Q 39.75 74.21875 46.484375 68.546875 
Q 53.21875 62.890625 53.21875 53.421875 
Q 53.21875 48.921875 51.53125 44.890625 
Q 49.859375 40.875 45.40625 35.40625 
Q 44.1875 33.984375 37.640625 27.21875 
Q 31.109375 20.453125 19.1875 8.296875 
z
" id="DejaVuSans-50"/>
       </defs>
       <use xlink:href="#DejaVuSans-50"/>
       <use x="63.623047" xlink:href="#DejaVuSans-48"/>
       <use x="127.246094" xlink:href="#DejaVuSans-48"/>
      </g>
     </g>
    </g>
    <g id="xtick_4">
     <g id="line2d_7">
      <path clip-path="url(#pc608141c62)" d="M 250.917025 307.584 
L 250.917025 41.472 
" style="fill:none;stroke:#b0b0b0;stroke-linecap:square;stroke-width:0.8;"/>
     </g>
     <g id="line2d_8">
      <g>
       <use style="stroke:#000000;stroke-width:0.8;" x="250.917025" xlink:href="#mf4ebfe2e19" y="307.584"/>
      </g>
     </g>
     <g id="text_4">
      <!-- 300 -->
      <g transform="translate(241.373275 322.182437)scale(0.1 -0.1)">
       <defs>
        <path d="M 40.578125 39.3125 
Q 47.65625 37.796875 51.625 33 
Q 55.609375 28.21875 55.609375 21.1875 
Q 55.609375 10.40625 48.1875 4.484375 
Q 40.765625 -1.421875 27.09375 -1.421875 
Q 22.515625 -1.421875 17.65625 -0.515625 
Q 12.796875 0.390625 7.625 2.203125 
L 7.625 11.71875 
Q 11.71875 9.328125 16.59375 8.109375 
Q 21.484375 6.890625 26.8125 6.890625 
Q 36.078125 6.890625 40.9375 10.546875 
Q 45.796875 14.203125 45.796875 21.1875 
Q 45.796875 27.640625 41.28125 31.265625 
Q 36.765625 34.90625 28.71875 34.90625 
L 20.21875 34.90625 
L 20.21875 43.015625 
L 29.109375 43.015625 
Q 36.375 43.015625 40.234375 45.921875 
Q 44.09375 48.828125 44.09375 54.296875 
Q 44.09375 59.90625 40.109375 62.90625 
Q 36.140625 65.921875 28.71875 65.921875 
Q 24.65625 65.921875 20.015625 65.03125 
Q 15.375 64.15625 9.8125 62.3125 
L 9.8125 71.09375 
Q 15.4375 72.65625 20.34375 73.4375 
Q 25.25 74.21875 29.59375 74.21875 
Q 40.828125 74.21875 47.359375 69.109375 
Q 53.90625 64.015625 53.90625 55.328125 
Q 53.90625 49.265625 50.4375 45.09375 
Q 46.96875 40.921875 40.578125 39.3125 
z
" id="DejaVuSans-51"/>
       </defs>
       <use xlink:href="#DejaVuSans-51"/>
       <use x="63.623047" xlink:href="#DejaVuSans-48"/>
       <use x="127.246094" xlink:href="#DejaVuSans-48"/>
      </g>
     </g>
    </g>
    <g id="xtick_5">
     <g id="line2d_9">
      <path clip-path="url(#pc608141c62)" d="M 309.945124 307.584 
L 309.945124 41.472 
" style="fill:none;stroke:#b0b0b0;stroke-linecap:square;stroke-width:0.8;"/>
     </g>
     <g id="line2d_10">
      <g>
       <use style="stroke:#000000;stroke-width:0.8;" x="309.945124" xlink:href="#mf4ebfe2e19" y="307.584"/>
      </g>
     </g>
     <g id="text_5">
      <!-- 400 -->
      <g transform="translate(300.401374 322.182437)scale(0.1 -0.1)">
       <defs>
        <path d="M 37.796875 64.3125 
L 12.890625 25.390625 
L 37.796875 25.390625 
z
M 35.203125 72.90625 
L 47.609375 72.90625 
L 47.609375 25.390625 
L 58.015625 25.390625 
L 58.015625 17.1875 
L 47.609375 17.1875 
L 47.609375 0 
L 37.796875 0 
L 37.796875 17.1875 
L 4.890625 17.1875 
L 4.890625 26.703125 
z
" id="DejaVuSans-52"/>
       </defs>
       <use xlink:href="#DejaVuSans-52"/>
       <use x="63.623047" xlink:href="#DejaVuSans-48"/>
       <use x="127.246094" xlink:href="#DejaVuSans-48"/>
      </g>
     </g>
    </g>
    <g id="xtick_6">
     <g id="line2d_11">
      <path clip-path="url(#pc608141c62)" d="M 368.973223 307.584 
L 368.973223 41.472 
" style="fill:none;stroke:#b0b0b0;stroke-linecap:square;stroke-width:0.8;"/>
     </g>
     <g id="line2d_12">
      <g>
       <use style="stroke:#000000;stroke-width:0.8;" x="368.973223" xlink:href="#mf4ebfe2e19" y="307.584"/>
      </g>
     </g>
     <g id="text_6">
      <!-- 500 -->
      <g transform="translate(359.429473 322.182437)scale(0.1 -0.1)">
       <defs>
        <path d="M 10.796875 72.90625 
L 49.515625 72.90625 
L 49.515625 64.59375 
L 19.828125 64.59375 
L 19.828125 46.734375 
Q 21.96875 47.46875 24.109375 47.828125 
Q 26.265625 48.1875 28.421875 48.1875 
Q 40.625 48.1875 47.75 41.5 
Q 54.890625 34.8125 54.890625 23.390625 
Q 54.890625 11.625 47.5625 5.09375 
Q 40.234375 -1.421875 26.90625 -1.421875 
Q 22.3125 -1.421875 17.546875 -0.640625 
Q 12.796875 0.140625 7.71875 1.703125 
L 7.71875 11.625 
Q 12.109375 9.234375 16.796875 8.0625 
Q 21.484375 6.890625 26.703125 6.890625 
Q 35.15625 6.890625 40.078125 11.328125 
Q 45.015625 15.765625 45.015625 23.390625 
Q 45.015625 31 40.078125 35.4375 
Q 35.15625 39.890625 26.703125 39.890625 
Q 22.75 39.890625 18.8125 39.015625 
Q 14.890625 38.140625 10.796875 36.28125 
z
" id="DejaVuSans-53"/>
       </defs>
       <use xlink:href="#DejaVuSans-53"/>
       <use x="63.623047" xlink:href="#DejaVuSans-48"/>
       <use x="127.246094" xlink:href="#DejaVuSans-48"/>
      </g>
     </g>
    </g>
    <g id="text_7">
     <!-- Generations -->
     <g transform="translate(205.662344 335.860562)scale(0.1 -0.1)">
      <defs>
       <path d="M 59.515625 10.40625 
L 59.515625 29.984375 
L 43.40625 29.984375 
L 43.40625 38.09375 
L 69.28125 38.09375 
L 69.28125 6.78125 
Q 63.578125 2.734375 56.6875 0.65625 
Q 49.8125 -1.421875 42 -1.421875 
Q 24.90625 -1.421875 15.25 8.5625 
Q 5.609375 18.5625 5.609375 36.375 
Q 5.609375 54.25 15.25 64.234375 
Q 24.90625 74.21875 42 74.21875 
Q 49.125 74.21875 55.546875 72.453125 
Q 61.96875 70.703125 67.390625 67.28125 
L 67.390625 56.78125 
Q 61.921875 61.421875 55.765625 63.765625 
Q 49.609375 66.109375 42.828125 66.109375 
Q 29.4375 66.109375 22.71875 58.640625 
Q 16.015625 51.171875 16.015625 36.375 
Q 16.015625 21.625 22.71875 14.15625 
Q 29.4375 6.6875 42.828125 6.6875 
Q 48.046875 6.6875 52.140625 7.59375 
Q 56.25 8.5 59.515625 10.40625 
z
" id="DejaVuSans-71"/>
       <path d="M 56.203125 29.59375 
L 56.203125 25.203125 
L 14.890625 25.203125 
Q 15.484375 15.921875 20.484375 11.0625 
Q 25.484375 6.203125 34.421875 6.203125 
Q 39.59375 6.203125 44.453125 7.46875 
Q 49.3125 8.734375 54.109375 11.28125 
L 54.109375 2.78125 
Q 49.265625 0.734375 44.1875 -0.34375 
Q 39.109375 -1.421875 33.890625 -1.421875 
Q 20.796875 -1.421875 13.15625 6.1875 
Q 5.515625 13.8125 5.515625 26.8125 
Q 5.515625 40.234375 12.765625 48.109375 
Q 20.015625 56 32.328125 56 
Q 43.359375 56 49.78125 48.890625 
Q 56.203125 41.796875 56.203125 29.59375 
z
M 47.21875 32.234375 
Q 47.125 39.59375 43.09375 43.984375 
Q 39.0625 48.390625 32.421875 48.390625 
Q 24.90625 48.390625 20.390625 44.140625 
Q 15.875 39.890625 15.1875 32.171875 
z
" id="DejaVuSans-101"/>
       <path d="M 54.890625 33.015625 
L 54.890625 0 
L 45.90625 0 
L 45.90625 32.71875 
Q 45.90625 40.484375 42.875 44.328125 
Q 39.84375 48.1875 33.796875 48.1875 
Q 26.515625 48.1875 22.3125 43.546875 
Q 18.109375 38.921875 18.109375 30.90625 
L 18.109375 0 
L 9.078125 0 
L 9.078125 54.6875 
L 18.109375 54.6875 
L 18.109375 46.1875 
Q 21.34375 51.125 25.703125 53.5625 
Q 30.078125 56 35.796875 56 
Q 45.21875 56 50.046875 50.171875 
Q 54.890625 44.34375 54.890625 33.015625 
z
" id="DejaVuSans-110"/>
       <path d="M 41.109375 46.296875 
Q 39.59375 47.171875 37.8125 47.578125 
Q 36.03125 48 33.890625 48 
Q 26.265625 48 22.1875 43.046875 
Q 18.109375 38.09375 18.109375 28.8125 
L 18.109375 0 
L 9.078125 0 
L 9.078125 54.6875 
L 18.109375 54.6875 
L 18.109375 46.1875 
Q 20.953125 51.171875 25.484375 53.578125 
Q 30.03125 56 36.53125 56 
Q 37.453125 56 38.578125 55.875 
Q 39.703125 55.765625 41.0625 55.515625 
z
" id="DejaVuSans-114"/>
       <path d="M 34.28125 27.484375 
Q 23.390625 27.484375 19.1875 25 
Q 14.984375 22.515625 14.984375 16.5 
Q 14.984375 11.71875 18.140625 8.90625 
Q 21.296875 6.109375 26.703125 6.109375 
Q 34.1875 6.109375 38.703125 11.40625 
Q 43.21875 16.703125 43.21875 25.484375 
L 43.21875 27.484375 
z
M 52.203125 31.203125 
L 52.203125 0 
L 43.21875 0 
L 43.21875 8.296875 
Q 40.140625 3.328125 35.546875 0.953125 
Q 30.953125 -1.421875 24.3125 -1.421875 
Q 15.921875 -1.421875 10.953125 3.296875 
Q 6 8.015625 6 15.921875 
Q 6 25.140625 12.171875 29.828125 
Q 18.359375 34.515625 30.609375 34.515625 
L 43.21875 34.515625 
L 43.21875 35.40625 
Q 43.21875 41.609375 39.140625 45 
Q 35.0625 48.390625 27.6875 48.390625 
Q 23 48.390625 18.546875 47.265625 
Q 14.109375 46.140625 10.015625 43.890625 
L 10.015625 52.203125 
Q 14.9375 54.109375 19.578125 55.046875 
Q 24.21875 56 28.609375 56 
Q 40.484375 56 46.34375 49.84375 
Q 52.203125 43.703125 52.203125 31.203125 
z
" id="DejaVuSans-97"/>
       <path d="M 18.3125 70.21875 
L 18.3125 54.6875 
L 36.8125 54.6875 
L 36.8125 47.703125 
L 18.3125 47.703125 
L 18.3125 18.015625 
Q 18.3125 11.328125 20.140625 9.421875 
Q 21.96875 7.515625 27.59375 7.515625 
L 36.8125 7.515625 
L 36.8125 0 
L 27.59375 0 
Q 17.1875 0 13.234375 3.875 
Q 9.28125 7.765625 9.28125 18.015625 
L 9.28125 47.703125 
L 2.6875 47.703125 
L 2.6875 54.6875 
L 9.28125 54.6875 
L 9.28125 70.21875 
z
" id="DejaVuSans-116"/>
       <path d="M 9.421875 54.6875 
L 18.40625 54.6875 
L 18.40625 0 
L 9.421875 0 
z
M 9.421875 75.984375 
L 18.40625 75.984375 
L 18.40625 64.59375 
L 9.421875 64.59375 
z
" id="DejaVuSans-105"/>
       <path d="M 30.609375 48.390625 
Q 23.390625 48.390625 19.1875 42.75 
Q 14.984375 37.109375 14.984375 27.296875 
Q 14.984375 17.484375 19.15625 11.84375 
Q 23.34375 6.203125 30.609375 6.203125 
Q 37.796875 6.203125 41.984375 11.859375 
Q 46.1875 17.53125 46.1875 27.296875 
Q 46.1875 37.015625 41.984375 42.703125 
Q 37.796875 48.390625 30.609375 48.390625 
z
M 30.609375 56 
Q 42.328125 56 49.015625 48.375 
Q 55.71875 40.765625 55.71875 27.296875 
Q 55.71875 13.875 49.015625 6.21875 
Q 42.328125 -1.421875 30.609375 -1.421875 
Q 18.84375 -1.421875 12.171875 6.21875 
Q 5.515625 13.875 5.515625 27.296875 
Q 5.515625 40.765625 12.171875 48.375 
Q 18.84375 56 30.609375 56 
z
" id="DejaVuSans-111"/>
       <path d="M 44.28125 53.078125 
L 44.28125 44.578125 
Q 40.484375 46.53125 36.375 47.5 
Q 32.28125 48.484375 27.875 48.484375 
Q 21.1875 48.484375 17.84375 46.4375 
Q 14.5 44.390625 14.5 40.28125 
Q 14.5 37.15625 16.890625 35.375 
Q 19.28125 33.59375 26.515625 31.984375 
L 29.59375 31.296875 
Q 39.15625 29.25 43.1875 25.515625 
Q 47.21875 21.78125 47.21875 15.09375 
Q 47.21875 7.46875 41.1875 3.015625 
Q 35.15625 -1.421875 24.609375 -1.421875 
Q 20.21875 -1.421875 15.453125 -0.5625 
Q 10.6875 0.296875 5.421875 2 
L 5.421875 11.28125 
Q 10.40625 8.6875 15.234375 7.390625 
Q 20.0625 6.109375 24.8125 6.109375 
Q 31.15625 6.109375 34.5625 8.28125 
Q 37.984375 10.453125 37.984375 14.40625 
Q 37.984375 18.0625 35.515625 20.015625 
Q 33.0625 21.96875 24.703125 23.78125 
L 21.578125 24.515625 
Q 13.234375 26.265625 9.515625 29.90625 
Q 5.8125 33.546875 5.8125 39.890625 
Q 5.8125 47.609375 11.28125 51.796875 
Q 16.75 56 26.8125 56 
Q 31.78125 56 36.171875 55.265625 
Q 40.578125 54.546875 44.28125 53.078125 
z
" id="DejaVuSans-115"/>
      </defs>
      <use xlink:href="#DejaVuSans-71"/>
      <use x="77.490234" xlink:href="#DejaVuSans-101"/>
      <use x="139.013672" xlink:href="#DejaVuSans-110"/>
      <use x="202.392578" xlink:href="#DejaVuSans-101"/>
      <use x="263.916016" xlink:href="#DejaVuSans-114"/>
      <use x="305.029297" xlink:href="#DejaVuSans-97"/>
      <use x="366.308594" xlink:href="#DejaVuSans-116"/>
      <use x="405.517578" xlink:href="#DejaVuSans-105"/>
      <use x="433.300781" xlink:href="#DejaVuSans-111"/>
      <use x="494.482422" xlink:href="#DejaVuSans-110"/>
      <use x="557.861328" xlink:href="#DejaVuSans-115"/>
     </g>
    </g>
   </g>
   <g id="matplotlib.axis_2">
    <g id="ytick_1">
     <g id="line2d_13">
      <path clip-path="url(#pc608141c62)" d="M 57.6 150.224104 
L 414.72 150.224104 
" style="fill:none;stroke:#b0b0b0;stroke-linecap:square;stroke-width:0.8;"/>
     </g>
     <g id="line2d_14">
      <defs>
       <path d="M 0 0 
L -3.5 0 
" id="m4d18e3653c" style="stroke:#000000;stroke-width:0.8;"/>
      </defs>
      <g>
       <use style="stroke:#000000;stroke-width:0.8;" x="57.6" xlink:href="#m4d18e3653c" y="150.224104"/>
      </g>
     </g>
     <g id="text_8">
      <!-- $\mathdefault{10^{3}}$ -->
      <g transform="translate(33 154.023323)scale(0.1 -0.1)">
       <use transform="translate(0 0.765625)" xlink:href="#DejaVuSans-49"/>
       <use transform="translate(63.623047 0.765625)" xlink:href="#DejaVuSans-48"/>
       <use transform="translate(128.203125 39.046875)scale(0.7)" xlink:href="#DejaVuSans-51"/>
      </g>
     </g>
    </g>
    <g id="text_9">
     <!-- Fitness -->
     <g transform="translate(26.920312 191.845187)rotate(-90)scale(0.1 -0.1)">
      <defs>
       <path d="M 9.8125 72.90625 
L 51.703125 72.90625 
L 51.703125 64.59375 
L 19.671875 64.59375 
L 19.671875 43.109375 
L 48.578125 43.109375 
L 48.578125 34.8125 
L 19.671875 34.8125 
L 19.671875 0 
L 9.8125 0 
z
" id="DejaVuSans-70"/>
      </defs>
      <use xlink:href="#DejaVuSans-70"/>
      <use x="50.269531" xlink:href="#DejaVuSans-105"/>
      <use x="78.052734" xlink:href="#DejaVuSans-116"/>
      <use x="117.261719" xlink:href="#DejaVuSans-110"/>
      <use x="180.640625" xlink:href="#DejaVuSans-101"/>
      <use x="242.164062" xlink:href="#DejaVuSans-115"/>
      <use x="294.263672" xlink:href="#DejaVuSans-115"/>
     </g>
    </g>
   </g>
   <g id="line2d_15">
    <path clip-path="url(#pc608141c62)" d="M 73.832727 295.488 
L 74.423008 272.48419 
L 75.013289 219.124071 
L 75.60357 210.594601 
L 76.193851 217.748228 
L 76.784132 211.146736 
L 77.374413 214.078623 
L 77.964694 205.602267 
L 78.554975 199.807574 
L 79.145256 205.0435 
L 79.735537 207.459632 
L 80.325818 204.349589 
L 80.916099 190.634553 
L 81.50638 191.410139 
L 82.096661 198.951645 
L 82.686942 200.942879 
L 83.277223 201.456805 
L 83.867504 195.921785 
L 84.457785 196.627291 
L 85.048066 194.68898 
L 85.638347 197.709358 
L 86.228628 198.199567 
L 86.818909 199.36597 
L 87.999471 198.219459 
L 88.589752 190.179604 
L 89.180033 193.74277 
L 89.770314 187.559342 
L 90.360595 186.095211 
L 90.950876 192.763477 
L 91.541157 193.382338 
L 92.131438 193.69056 
L 92.721719 191.713582 
L 93.312 198.932972 
L 93.902281 186.538049 
L 94.492562 179.698625 
L 95.082843 182.669187 
L 95.673124 177.502737 
L 96.263405 182.156607 
L 96.853686 184.138386 
L 97.443967 181.754327 
L 98.034248 188.597439 
L 98.624529 178.707297 
L 99.21481 178.551272 
L 99.805091 179.262917 
L 100.395372 184.646042 
L 100.985653 180.542731 
L 101.575934 180.657528 
L 102.166215 179.781849 
L 102.756496 181.521586 
L 103.346777 183.664815 
L 103.937058 181.450049 
L 104.527339 184.931507 
L 105.11762 179.827051 
L 105.707901 183.26451 
L 106.298182 170.686855 
L 106.888463 176.789368 
L 107.478744 186.404097 
L 108.069025 176.038604 
L 108.659306 178.465655 
L 109.249587 171.154353 
L 109.839868 181.733862 
L 110.430149 185.842634 
L 111.02043 174.93317 
L 111.610711 182.679331 
L 112.200992 175.714003 
L 112.791273 185.779553 
L 113.381554 178.855081 
L 113.971835 174.828592 
L 114.562116 183.40684 
L 115.152397 179.495788 
L 115.742678 188.956331 
L 116.332959 175.157946 
L 116.92324 186.152492 
L 117.513521 177.126084 
L 118.103802 188.272684 
L 118.694083 192.666865 
L 119.284364 182.394177 
L 119.874645 189.296776 
L 120.464926 183.93092 
L 121.055207 185.50283 
L 121.645488 183.674736 
L 122.235769 187.326324 
L 122.82605 181.575862 
L 123.416331 186.051771 
L 124.006612 193.682404 
L 124.596893 190.140727 
L 125.187174 187.934241 
L 125.777455 190.811125 
L 126.367736 188.45074 
L 126.958017 189.034298 
L 127.548298 190.301463 
L 128.138579 199.030294 
L 128.72886 194.788678 
L 129.31914 188.374717 
L 129.909421 196.926769 
L 130.499702 177.633186 
L 131.089983 200.595157 
L 131.680264 199.476573 
L 132.270545 190.437273 
L 132.860826 190.388473 
L 133.451107 187.191429 
L 134.041388 188.528196 
L 134.631669 191.478208 
L 135.22195 196.206326 
L 135.812231 184.54643 
L 136.402512 187.326324 
L 136.992793 183.878219 
L 137.583074 185.565067 
L 138.173355 183.050305 
L 138.763636 185.472387 
L 139.353917 190.673551 
L 139.944198 183.526516 
L 140.534479 184.461516 
L 141.12476 178.986942 
L 141.715041 183.460985 
L 142.305322 185.919549 
L 142.895603 186.246298 
L 143.485884 185.495994 
L 144.076165 179.761866 
L 144.666446 187.356219 
L 145.256727 185.588824 
L 145.847008 193.09149 
L 146.437289 190.476608 
L 147.02757 185.222759 
L 147.617851 185.400053 
L 148.208132 183.396898 
L 148.798413 180.181228 
L 149.388694 183.66789 
L 149.978975 181.403713 
L 150.569256 176.795639 
L 151.749818 190.406835 
L 152.340099 188.098382 
L 152.93038 190.245619 
L 153.520661 187.895276 
L 154.701223 200.08927 
L 155.291504 194.974137 
L 155.881785 181.009575 
L 156.472066 186.835514 
L 157.062347 185.923199 
L 157.652628 180.904531 
L 158.242909 190.995782 
L 159.423471 178.485879 
L 160.013752 178.551196 
L 160.604033 181.828042 
L 161.194314 189.562969 
L 161.784595 183.212549 
L 162.374876 183.984592 
L 163.555438 191.257978 
L 164.145719 185.93296 
L 164.736 191.449327 
L 165.326281 191.169035 
L 165.916562 179.827696 
L 167.097124 182.946629 
L 167.687405 190.933223 
L 168.277686 184.876641 
L 168.867967 191.0764 
L 169.458248 195.538247 
L 170.048529 203.826616 
L 170.63881 182.649184 
L 171.229091 187.288516 
L 171.819372 194.080863 
L 172.409653 197.107892 
L 172.999934 192.924843 
L 173.590215 189.774828 
L 174.180496 188.255385 
L 174.770777 182.111859 
L 175.361058 184.035657 
L 175.951339 184.652249 
L 176.54162 183.717008 
L 177.131901 186.008896 
L 177.722182 192.338803 
L 178.312463 186.648094 
L 178.902744 188.146102 
L 179.493025 186.130545 
L 180.673587 180.309091 
L 181.263868 178.966779 
L 181.854149 185.694235 
L 182.44443 182.195529 
L 183.034711 183.918995 
L 183.624992 181.964086 
L 184.215273 183.805457 
L 184.805554 190.03642 
L 185.395835 192.465388 
L 185.986116 189.756562 
L 186.576397 183.11685 
L 187.166678 194.633702 
L 187.756959 182.764869 
L 188.34724 182.794152 
L 188.937521 188.307961 
L 189.527802 184.573988 
L 190.118083 189.448673 
L 190.708364 199.496099 
L 191.888926 188.440254 
L 192.479207 196.519703 
L 193.069488 190.966888 
L 193.659769 181.403093 
L 194.25005 190.98974 
L 194.840331 190.044052 
L 195.430612 186.051771 
L 196.020893 187.609715 
L 196.611174 182.271453 
L 197.201455 183.974631 
L 197.791736 192.385205 
L 198.382017 178.009763 
L 198.972298 183.844102 
L 199.562579 184.323381 
L 200.15286 194.296518 
L 200.74314 192.689963 
L 201.333421 183.21108 
L 201.923702 179.532249 
L 203.104264 186.958571 
L 203.694545 186.166459 
L 204.875107 181.643733 
L 205.465388 180.027174 
L 206.055669 174.864598 
L 206.64595 180.734729 
L 207.236231 183.509553 
L 207.826512 176.136276 
L 208.416793 185.022554 
L 209.597355 194.047644 
L 210.187636 186.498586 
L 210.777917 195.474767 
L 211.368198 186.734182 
L 211.958479 193.329262 
L 212.54876 181.958255 
L 213.139041 185.799716 
L 213.729322 186.8624 
L 214.319603 186.375884 
L 214.909884 177.193468 
L 215.500165 182.494656 
L 216.090446 177.638541 
L 216.680727 185.836381 
L 217.271008 184.750012 
L 217.861289 190.554038 
L 218.45157 201.03752 
L 219.041851 199.465726 
L 220.222413 179.886564 
L 220.812694 198.285675 
L 221.402975 189.958746 
L 221.993256 191.994835 
L 222.583537 195.510736 
L 223.173818 186.172647 
L 223.764099 189.538328 
L 224.35438 190.331778 
L 224.944661 188.05737 
L 225.534942 191.430763 
L 226.125223 185.216054 
L 226.715504 191.564885 
L 227.305785 190.529177 
L 227.896066 180.682667 
L 228.486347 188.010414 
L 229.076628 190.987933 
L 229.666909 190.656601 
L 230.25719 193.939731 
L 230.847471 191.166435 
L 231.437752 189.770991 
L 232.028033 194.061492 
L 232.618314 186.889833 
L 233.208595 189.210889 
L 233.798876 188.24205 
L 234.389157 195.153222 
L 234.979438 185.933161 
L 235.569719 187.439803 
L 236.16 177.661558 
L 236.750281 184.237292 
L 237.340562 180.767518 
L 237.930843 196.6277 
L 238.521124 180.15019 
L 239.111405 178.131386 
L 239.701686 178.90009 
L 240.291967 179.48226 
L 241.472529 194.640395 
L 242.06281 182.119641 
L 242.653091 179.355646 
L 243.243372 183.041015 
L 243.833653 188.319667 
L 244.423934 182.058921 
L 245.014215 171.81918 
L 245.604496 175.417545 
L 246.194777 186.808295 
L 246.785058 194.497715 
L 247.96562 185.169857 
L 248.555901 187.28384 
L 249.146182 193.874977 
L 249.736463 187.688266 
L 250.326744 188.796127 
L 251.507306 180.156013 
L 252.097587 186.668943 
L 252.687868 186.270257 
L 253.278149 178.960749 
L 253.86843 186.466061 
L 254.458711 187.94011 
L 255.048992 192.40463 
L 255.639273 191.470394 
L 256.229554 186.528286 
L 256.819835 189.821886 
L 257.410116 181.293055 
L 258.000397 194.21173 
L 259.180959 179.144117 
L 259.77124 180.693911 
L 260.361521 179.628468 
L 260.951802 181.745392 
L 261.542083 182.024345 
L 262.132364 180.272551 
L 262.722645 192.529757 
L 263.312926 180.217385 
L 263.903207 189.496379 
L 264.493488 185.079449 
L 265.083769 184.810846 
L 265.67405 177.699396 
L 266.264331 182.464938 
L 266.854612 183.058132 
L 267.444893 178.418668 
L 268.035174 185.04984 
L 268.625455 178.259606 
L 269.215736 188.272684 
L 269.806017 188.666344 
L 270.396298 186.495486 
L 270.986579 181.37687 
L 271.57686 182.333777 
L 272.16714 176.880325 
L 272.757421 176.472401 
L 273.347702 180.223095 
L 273.937983 189.428819 
L 275.118545 179.344553 
L 275.708826 185.590812 
L 276.299107 187.565421 
L 276.889388 196.7048 
L 277.479669 194.372454 
L 278.06995 185.66725 
L 278.660231 181.434396 
L 279.250512 191.145082 
L 279.840793 179.367496 
L 280.431074 184.560257 
L 281.021355 186.926284 
L 282.201917 186.434076 
L 282.792198 179.574132 
L 283.382479 176.574679 
L 283.97276 189.108853 
L 284.563041 179.952343 
L 285.153322 180.499932 
L 285.743603 179.931021 
L 286.333884 179.945985 
L 286.924165 187.503546 
L 287.514446 189.987358 
L 288.104727 181.989353 
L 288.695008 180.411064 
L 289.285289 188.176554 
L 289.87557 186.040795 
L 290.465851 186.014876 
L 291.056132 186.502051 
L 291.646413 187.275802 
L 292.236694 184.520753 
L 292.826975 191.897581 
L 293.417256 201.364287 
L 294.007537 203.528138 
L 294.597818 187.886541 
L 295.188099 186.571857 
L 295.77838 184.767755 
L 296.368661 190.62224 
L 296.958942 188.526151 
L 297.549223 188.180395 
L 298.139504 191.129001 
L 298.729785 184.082918 
L 299.320066 193.025408 
L 299.910347 182.468876 
L 300.500628 185.472725 
L 301.090909 184.238586 
L 301.68119 186.469231 
L 302.271471 183.015324 
L 302.861752 188.888654 
L 303.452033 182.453122 
L 304.042314 181.101574 
L 304.632595 175.788511 
L 305.222876 187.005289 
L 305.813157 182.295921 
L 306.403438 183.164072 
L 306.993719 195.364495 
L 307.584 178.64257 
L 308.174281 182.071013 
L 308.764562 179.507118 
L 309.354843 182.285832 
L 309.945124 181.202504 
L 310.535405 189.548519 
L 311.125686 187.515102 
L 311.715967 187.149259 
L 312.306248 182.267559 
L 312.896529 187.857585 
L 313.48681 184.828477 
L 314.077091 177.341064 
L 314.667372 178.705789 
L 315.257653 176.13888 
L 315.847934 183.770012 
L 316.438215 177.001237 
L 317.618777 192.181949 
L 318.209058 181.325115 
L 318.799339 179.032275 
L 319.38962 190.456687 
L 319.979901 183.986441 
L 320.570182 183.819657 
L 321.160463 180.499621 
L 321.750744 179.50331 
L 322.341025 189.27562 
L 322.931306 189.08243 
L 323.521587 186.966513 
L 324.111868 192.843667 
L 324.702149 191.235088 
L 325.29243 184.272105 
L 325.882711 191.478729 
L 326.472992 186.029597 
L 327.063273 188.98897 
L 327.653554 189.710374 
L 328.243835 182.341569 
L 328.834116 179.086268 
L 329.424397 185.190009 
L 330.014678 187.874901 
L 330.604959 179.942147 
L 331.19524 188.148265 
L 331.785521 180.632836 
L 332.375802 180.407824 
L 332.966083 187.861618 
L 333.556364 190.183798 
L 334.736926 183.88412 
L 335.327207 189.809883 
L 335.917488 175.657696 
L 336.507769 182.813535 
L 337.09805 186.834343 
L 337.688331 184.75013 
L 338.278612 178.939772 
L 338.868893 174.931329 
L 339.459174 177.845654 
L 340.049455 172.71308 
L 340.639736 181.538129 
L 341.820298 176.110399 
L 342.410579 191.516514 
L 343.00086 191.447264 
L 343.59114 184.635342 
L 344.181421 184.673778 
L 344.771702 185.397654 
L 345.361983 178.306613 
L 345.952264 182.067124 
L 346.542545 180.559329 
L 347.132826 190.865132 
L 347.723107 187.1979 
L 348.313388 180.803665 
L 348.903669 172.72993 
L 349.49395 185.384167 
L 350.084231 174.832308 
L 350.674512 179.143943 
L 351.264793 175.756436 
L 351.855074 182.440606 
L 352.445355 182.956755 
L 353.035636 181.371119 
L 353.625917 181.633978 
L 354.216198 176.275468 
L 355.39676 170.013162 
L 355.987041 177.149738 
L 356.577322 190.187789 
L 357.167603 192.287288 
L 357.757884 180.31525 
L 358.348165 178.064996 
L 358.938446 177.463514 
L 360.119008 174.522265 
L 360.709289 182.22862 
L 361.29957 172.267567 
L 361.889851 167.141983 
L 362.480132 176.590697 
L 363.070413 175.016392 
L 363.660694 174.550088 
L 364.250975 178.45515 
L 364.841256 171.972122 
L 365.431537 176.615125 
L 366.021818 180.205966 
L 366.612099 172.043324 
L 367.20238 180.571919 
L 367.792661 174.382808 
L 368.382942 172.619203 
L 368.973223 180.394929 
L 369.563504 170.719844 
L 370.153785 180.040044 
L 370.744066 180.000812 
L 371.334347 177.939418 
L 371.924628 172.37602 
L 372.514909 181.056932 
L 373.10519 178.016959 
L 373.695471 172.577437 
L 374.285752 172.850673 
L 374.876033 179.283388 
L 375.466314 170.857291 
L 376.056595 172.357315 
L 376.646876 170.971373 
L 377.237157 175.917526 
L 377.827438 174.628399 
L 378.417719 174.929488 
L 379.008 169.690528 
L 379.598281 186.572257 
L 380.188562 178.722979 
L 380.778843 176.299498 
L 381.369124 163.573171 
L 381.959405 167.794598 
L 382.549686 168.411086 
L 383.139967 174.153598 
L 383.730248 175.540055 
L 384.320529 162.69944 
L 385.501091 175.681982 
L 386.091372 178.530061 
L 386.681653 169.607782 
L 387.271934 180.175519 
L 387.862215 175.760137 
L 388.452496 177.156123 
L 389.633058 170.960491 
L 390.223339 176.549364 
L 390.81362 185.957073 
L 391.403901 185.971024 
L 391.994182 176.658355 
L 392.584463 170.317921 
L 393.174744 178.347821 
L 394.355306 169.169909 
L 394.945587 167.01405 
L 395.535868 175.40335 
L 396.126149 172.626915 
L 396.71643 178.983637 
L 397.306711 180.414913 
L 397.896992 175.371961 
L 398.487273 173.545056 
L 398.487273 173.545056 
" style="fill:none;stroke:#0000ff;stroke-linecap:square;stroke-width:1.5;"/>
   </g>
   <g id="line2d_16">
    <path clip-path="url(#pc608141c62)" d="M 73.832727 250.215644 
L 74.423008 224.86123 
L 75.013289 175.065026 
L 75.60357 169.411371 
L 76.193851 175.037911 
L 76.784132 168.642513 
L 77.374413 171.640425 
L 77.964694 165.218119 
L 78.554975 161.163455 
L 79.735537 165.6485 
L 80.325818 160.134831 
L 80.916099 150.281021 
L 81.50638 152.531442 
L 82.096661 158.963704 
L 82.686942 155.379069 
L 84.457785 150.018301 
L 85.048066 149.806754 
L 85.638347 152.756699 
L 86.228628 149.883189 
L 86.818909 153.597286 
L 87.40919 151.091987 
L 87.999471 150.771708 
L 88.589752 149.667666 
L 90.360595 144.992778 
L 90.950876 146.647785 
L 91.541157 147.799833 
L 92.131438 149.888086 
L 92.721719 145.975953 
L 93.312 152.073345 
L 93.902281 143.840737 
L 94.492562 131.926636 
L 95.082843 136.803849 
L 95.673124 134.816159 
L 96.263405 136.253696 
L 96.853686 141.557451 
L 97.443967 137.414934 
L 98.034248 140.684549 
L 98.624529 135.767897 
L 99.21481 134.266673 
L 99.805091 133.838787 
L 100.395372 138.28947 
L 100.985653 135.211895 
L 101.575934 134.238857 
L 102.166215 135.626724 
L 102.756496 135.673669 
L 103.346777 137.765505 
L 103.937058 132.574963 
L 104.527339 135.637431 
L 105.11762 132.032199 
L 105.707901 135.370614 
L 106.298182 127.847041 
L 106.888463 132.006595 
L 107.478744 133.840409 
L 108.069025 129.192348 
L 108.659306 134.847988 
L 109.249587 127.58217 
L 109.839868 130.587445 
L 110.430149 136.900814 
L 111.02043 133.585295 
L 111.610711 136.073668 
L 112.200992 133.027051 
L 112.791273 138.415375 
L 113.381554 130.203565 
L 113.971835 130.963539 
L 114.562116 137.398649 
L 115.152397 140.278901 
L 115.742678 144.143962 
L 116.332959 131.151203 
L 116.92324 134.837604 
L 117.513521 132.896794 
L 118.103802 142.555769 
L 118.694083 142.484876 
L 119.284364 141.649479 
L 119.874645 145.932595 
L 120.464926 139.739223 
L 121.055207 139.843163 
L 122.235769 140.364953 
L 122.82605 135.026218 
L 123.416331 143.789702 
L 124.006612 142.119351 
L 124.596893 138.596195 
L 125.187174 142.951052 
L 125.777455 141.820654 
L 126.367736 142.143455 
L 126.958017 140.253638 
L 127.548298 143.857916 
L 128.138579 151.004994 
L 128.72886 148.098279 
L 129.31914 143.518803 
L 129.909421 147.848944 
L 130.499702 130.748356 
L 131.089983 147.936484 
L 131.680264 149.826641 
L 132.270545 142.730546 
L 132.860826 145.275753 
L 133.451107 139.475412 
L 134.041388 141.66115 
L 134.631669 146.468721 
L 135.22195 146.387392 
L 135.812231 139.682817 
L 136.402512 140.644077 
L 136.992793 136.873189 
L 137.583074 134.890499 
L 138.173355 134.981102 
L 138.763636 137.274796 
L 139.353917 140.81205 
L 139.944198 136.01223 
L 140.534479 134.830675 
L 141.12476 129.316238 
L 141.715041 135.692922 
L 142.895603 140.181579 
L 143.485884 139.619436 
L 144.076165 137.091622 
L 144.666446 137.490533 
L 145.256727 138.074754 
L 145.847008 141.85828 
L 147.02757 136.515447 
L 147.617851 139.856467 
L 148.208132 133.961669 
L 148.798413 132.432745 
L 149.388694 138.394141 
L 149.978975 134.728956 
L 150.569256 132.61948 
L 151.159537 136.081432 
L 151.749818 137.211581 
L 152.340099 140.928117 
L 152.93038 142.182761 
L 153.520661 141.523735 
L 154.701223 148.469185 
L 155.291504 143.956206 
L 155.881785 137.476313 
L 156.472066 137.875124 
L 157.062347 139.94251 
L 157.652628 134.93848 
L 158.242909 141.944283 
L 158.83319 133.975956 
L 159.423471 129.801279 
L 160.013752 132.486594 
L 160.604033 133.139383 
L 161.194314 138.740089 
L 161.784595 133.333087 
L 162.374876 134.724101 
L 162.965157 137.934913 
L 163.555438 139.580093 
L 164.145719 138.689896 
L 164.736 139.682789 
L 165.326281 138.966025 
L 165.916562 133.551583 
L 166.506843 134.440351 
L 167.097124 137.076497 
L 167.687405 141.259041 
L 168.277686 138.231167 
L 169.458248 142.045249 
L 170.048529 149.250202 
L 170.63881 132.57475 
L 171.229091 134.718487 
L 171.819372 141.001639 
L 172.409653 143.711527 
L 173.590215 136.974879 
L 174.180496 139.016575 
L 174.770777 130.70567 
L 175.361058 137.595366 
L 175.951339 137.047245 
L 176.54162 133.353142 
L 177.131901 136.156137 
L 177.722182 140.316854 
L 178.312463 137.876802 
L 178.902744 136.761926 
L 179.493025 136.735277 
L 180.673587 131.341338 
L 181.263868 132.572757 
L 181.854149 138.095283 
L 182.44443 134.380372 
L 183.034711 135.197384 
L 183.624992 136.852232 
L 184.215273 137.328102 
L 184.805554 136.000083 
L 185.395835 139.944062 
L 185.986116 137.182545 
L 186.576397 132.827835 
L 187.166678 140.381887 
L 187.756959 134.107512 
L 188.34724 134.173094 
L 188.937521 136.757068 
L 189.527802 138.607449 
L 190.118083 139.293396 
L 190.708364 145.777021 
L 191.298645 143.16433 
L 191.888926 137.233789 
L 192.479207 142.86966 
L 193.069488 138.355097 
L 193.659769 132.443291 
L 194.25005 140.540411 
L 194.840331 137.466915 
L 195.430612 137.33766 
L 196.020893 138.457849 
L 196.611174 136.468671 
L 197.201455 130.445257 
L 197.791736 140.620367 
L 198.382017 127.470611 
L 198.972298 132.678339 
L 199.562579 131.28913 
L 200.15286 141.85492 
L 200.74314 141.283024 
L 201.333421 130.917659 
L 201.923702 129.559108 
L 202.513983 128.933812 
L 203.104264 133.56855 
L 203.694545 136.787334 
L 204.284826 134.35771 
L 204.875107 133.136568 
L 205.465388 129.957217 
L 206.055669 123.797588 
L 206.64595 129.76973 
L 207.236231 133.836013 
L 207.826512 127.093812 
L 208.416793 132.044029 
L 209.007074 133.849758 
L 209.597355 141.420062 
L 210.187636 136.921578 
L 210.777917 140.483537 
L 211.368198 136.748016 
L 211.958479 142.064784 
L 212.54876 130.403042 
L 213.139041 133.882155 
L 213.729322 135.168822 
L 214.319603 138.53601 
L 214.909884 128.296614 
L 215.500165 128.976396 
L 216.090446 128.667939 
L 216.680727 136.262927 
L 217.271008 134.235604 
L 217.861289 139.463438 
L 218.45157 145.686733 
L 219.632132 137.24389 
L 220.222413 134.948883 
L 220.812694 144.590314 
L 221.402975 136.22396 
L 222.583537 141.82646 
L 223.173818 137.575168 
L 223.764099 141.329167 
L 224.35438 140.775081 
L 224.944661 141.504552 
L 225.534942 141.829353 
L 226.125223 137.964911 
L 226.715504 140.748797 
L 227.305785 138.875497 
L 227.896066 132.326752 
L 229.076628 143.680557 
L 229.666909 143.641839 
L 230.25719 144.341521 
L 231.437752 141.593269 
L 232.028033 141.105487 
L 232.618314 140.459834 
L 233.208595 141.101056 
L 233.798876 139.047191 
L 234.389157 142.62506 
L 234.979438 135.590892 
L 235.569719 136.459127 
L 236.16 131.911542 
L 236.750281 133.813603 
L 237.340562 133.449247 
L 237.930843 143.647394 
L 238.521124 134.085002 
L 239.111405 129.11975 
L 240.291967 133.810081 
L 240.882248 136.902626 
L 241.472529 138.003653 
L 242.06281 134.03906 
L 242.653091 134.02128 
L 243.243372 136.111653 
L 243.833653 137.07558 
L 244.423934 137.328133 
L 245.014215 128.148685 
L 245.604496 135.887044 
L 246.785058 146.283362 
L 247.375339 140.67272 
L 247.96562 137.510703 
L 248.555901 141.633937 
L 249.146182 142.514414 
L 249.736463 140.426465 
L 250.917025 133.275707 
L 252.097587 137.106646 
L 252.687868 134.620669 
L 253.278149 134.006381 
L 253.86843 136.28307 
L 254.458711 141.124349 
L 255.048992 139.803247 
L 255.639273 141.373909 
L 256.229554 136.046064 
L 256.819835 136.863297 
L 257.410116 130.598753 
L 258.000397 141.897836 
L 258.590678 140.316529 
L 259.180959 131.089364 
L 259.77124 132.823025 
L 260.361521 130.380451 
L 260.951802 133.328754 
L 261.542083 134.69002 
L 262.132364 129.23261 
L 262.722645 139.084543 
L 263.312926 131.782927 
L 263.903207 139.776142 
L 264.493488 133.20182 
L 265.083769 132.004396 
L 265.67405 132.332248 
L 266.264331 130.93595 
L 266.854612 131.725291 
L 267.444893 130.080153 
L 268.035174 132.970341 
L 268.625455 129.284873 
L 269.215736 138.752497 
L 269.806017 136.021452 
L 270.396298 136.924759 
L 270.986579 129.812197 
L 271.57686 131.791862 
L 272.16714 126.864336 
L 272.757421 130.804566 
L 273.347702 131.382484 
L 273.937983 136.411703 
L 274.528264 131.383317 
L 275.118545 129.256479 
L 275.708826 133.732706 
L 276.299107 136.207009 
L 276.889388 142.845916 
L 277.479669 141.600031 
L 278.660231 130.186064 
L 279.250512 138.215916 
L 279.840793 130.76825 
L 280.431074 131.782217 
L 281.021355 135.563281 
L 281.611636 136.619786 
L 282.201917 135.784956 
L 282.792198 129.785424 
L 283.382479 132.668574 
L 283.97276 136.134681 
L 284.563041 133.485812 
L 285.153322 129.64292 
L 285.743603 136.103731 
L 286.333884 134.351718 
L 286.924165 136.935955 
L 287.514446 142.827458 
L 288.104727 136.851158 
L 289.285289 141.920852 
L 289.87557 143.321672 
L 290.465851 141.356263 
L 291.646413 145.521982 
L 292.236694 140.41005 
L 292.826975 145.380672 
L 294.007537 152.908778 
L 295.188099 138.601367 
L 295.77838 138.891681 
L 296.368661 144.600488 
L 296.958942 144.401282 
L 297.549223 143.238005 
L 298.139504 142.906006 
L 298.729785 139.066276 
L 299.320066 144.511417 
L 299.910347 138.394746 
L 300.500628 138.323506 
L 301.090909 140.094677 
L 301.68119 142.508236 
L 302.271471 136.031451 
L 302.861752 138.764426 
L 303.452033 130.074264 
L 304.042314 136.740713 
L 304.632595 132.652328 
L 305.222876 141.004433 
L 305.813157 138.232243 
L 306.403438 133.880997 
L 306.993719 146.956798 
L 307.584 128.114653 
L 308.174281 133.02779 
L 308.764562 134.716439 
L 309.354843 134.387875 
L 309.945124 132.533241 
L 310.535405 139.382153 
L 311.125686 139.423251 
L 311.715967 138.680923 
L 312.306248 133.467008 
L 312.896529 139.616822 
L 313.48681 139.97287 
L 314.077091 129.585941 
L 315.257653 136.521847 
L 315.847934 137.155226 
L 316.438215 133.75265 
L 317.028496 141.42921 
L 317.618777 142.724719 
L 318.209058 137.890053 
L 318.799339 135.09144 
L 319.38962 142.480478 
L 319.979901 136.261166 
L 320.570182 137.990962 
L 321.160463 134.108547 
L 321.750744 135.993606 
L 322.341025 142.351045 
L 322.931306 139.380463 
L 323.521587 138.592369 
L 324.111868 142.559382 
L 324.702149 144.174969 
L 325.29243 137.516549 
L 325.882711 144.204409 
L 326.472992 143.759562 
L 327.063273 138.474963 
L 327.653554 141.763275 
L 328.243835 135.248864 
L 328.834116 135.588354 
L 329.424397 140.853738 
L 330.014678 140.924776 
L 330.604959 136.789606 
L 331.19524 139.883406 
L 331.785521 138.58413 
L 332.375802 138.744851 
L 333.556364 141.625069 
L 334.736926 135.877006 
L 335.327207 140.436957 
L 335.917488 128.687029 
L 336.507769 138.250624 
L 337.09805 139.898351 
L 337.688331 138.626613 
L 338.278612 131.773251 
L 338.868893 129.655563 
L 339.459174 135.030851 
L 340.049455 133.6621 
L 340.639736 132.954812 
L 341.230017 132.554237 
L 341.820298 131.812235 
L 342.410579 141.017708 
L 343.00086 141.576817 
L 343.59114 137.766691 
L 344.181421 135.47718 
L 344.771702 136.572778 
L 345.361983 135.268762 
L 345.952264 133.554087 
L 346.542545 132.946229 
L 347.132826 140.774388 
L 347.723107 137.947244 
L 348.313388 132.240402 
L 348.903669 125.311621 
L 349.49395 132.329618 
L 350.084231 130.925362 
L 350.674512 131.529635 
L 351.264793 127.606721 
L 351.855074 131.224291 
L 352.445355 133.29523 
L 353.035636 134.927742 
L 353.625917 135.537165 
L 354.216198 129.895132 
L 355.39676 122.214538 
L 355.987041 131.562529 
L 356.577322 138.117627 
L 357.167603 140.357814 
L 357.757884 135.064616 
L 358.348165 127.985883 
L 358.938446 130.404068 
L 359.528727 130.255414 
L 360.119008 128.429619 
L 360.709289 133.818624 
L 361.29957 126.705256 
L 361.889851 122.235308 
L 362.480132 131.118779 
L 363.070413 131.952999 
L 363.660694 127.182306 
L 364.250975 131.457585 
L 364.841256 126.626263 
L 365.431537 128.466002 
L 366.021818 129.394093 
L 366.612099 128.982249 
L 367.20238 133.239103 
L 367.792661 126.600807 
L 368.382942 124.565167 
L 368.973223 132.022967 
L 369.563504 123.442806 
L 370.153785 127.070906 
L 370.744066 128.81809 
L 371.334347 129.971366 
L 371.924628 125.656609 
L 372.514909 131.262608 
L 373.10519 126.522763 
L 373.695471 124.043656 
L 374.285752 126.811946 
L 374.876033 127.058485 
L 375.466314 123.000225 
L 376.646876 125.24142 
L 377.237157 130.273824 
L 377.827438 125.289342 
L 378.417719 123.188016 
L 379.008 120.287553 
L 379.598281 133.791972 
L 380.778843 122.847891 
L 381.369124 118.062198 
L 381.959405 119.143898 
L 382.549686 121.828571 
L 383.139967 121.799214 
L 383.730248 125.356723 
L 384.320529 119.266959 
L 384.91081 117.983548 
L 385.501091 121.760505 
L 386.091372 128.563631 
L 386.681653 122.47719 
L 387.271934 131.568049 
L 388.452496 127.468998 
L 389.633058 123.755192 
L 390.223339 126.372322 
L 390.81362 132.525101 
L 391.403901 130.364791 
L 391.994182 124.664322 
L 392.584463 122.272201 
L 393.174744 125.877179 
L 393.765025 122.207735 
L 394.355306 121.981027 
L 394.945587 121.495674 
L 395.535868 125.903817 
L 396.126149 125.151444 
L 396.71643 128.278313 
L 397.306711 128.796585 
L 397.896992 125.537534 
L 398.487273 128.283552 
L 398.487273 128.283552 
" style="fill:none;stroke:#008000;stroke-dasharray:9.6,2.4,1.5,2.4;stroke-dashoffset:0;stroke-width:1.5;"/>
   </g>
   <g id="line2d_17">
    <path clip-path="url(#pc608141c62)" d="M 73.832727 145.672293 
L 74.423008 145.672293 
L 75.013289 134.903744 
L 78.554975 134.903744 
L 79.145256 126.317776 
L 80.325818 126.317776 
L 80.916099 92.71796 
L 83.867504 92.71796 
L 84.457785 90.514132 
L 87.40919 90.514132 
L 87.999471 88.34039 
L 93.902281 88.34039 
L 94.492562 56.545875 
L 196.611174 56.545875 
L 197.201455 53.568 
L 398.487273 53.568 
L 398.487273 53.568 
" style="fill:none;stroke:#ff0000;stroke-linecap:square;stroke-width:1.5;"/>
   </g>
   <g id="patch_3">
    <path d="M 57.6 307.584 
L 57.6 41.472 
" style="fill:none;stroke:#000000;stroke-linecap:square;stroke-linejoin:miter;stroke-width:0.8;"/>
   </g>
   <g id="patch_4">
    <path d="M 414.72 307.584 
L 414.72 41.472 
" style="fill:none;stroke:#000000;stroke-linecap:square;stroke-linejoin:miter;stroke-width:0.8;"/>
   </g>
   <g id="patch_5">
    <path d="M 57.6 307.584 
L 414.72 307.584 
" style="fill:none;stroke:#000000;stroke-linecap:square;stroke-linejoin:miter;stroke-width:0.8;"/>
   </g>
   <g id="patch_6">
    <path d="M 57.6 41.472 
L 414.72 41.472 
" style="fill:none;stroke:#000000;stroke-linecap:square;stroke-linejoin:miter;stroke-width:0.8;"/>
   </g>
   <g id="text_10">
    <!-- Population's average and best fitness -->
    <g transform="translate(123.529687 35.472)scale(0.12 -0.12)">
     <defs>
      <path d="M 19.671875 64.796875 
L 19.671875 37.40625 
L 32.078125 37.40625 
Q 38.96875 37.40625 42.71875 40.96875 
Q 46.484375 44.53125 46.484375 51.125 
Q 46.484375 57.671875 42.71875 61.234375 
Q 38.96875 64.796875 32.078125 64.796875 
z
M 9.8125 72.90625 
L 32.078125 72.90625 
Q 44.34375 72.90625 50.609375 67.359375 
Q 56.890625 61.8125 56.890625 51.125 
Q 56.890625 40.328125 50.609375 34.8125 
Q 44.34375 29.296875 32.078125 29.296875 
L 19.671875 29.296875 
L 19.671875 0 
L 9.8125 0 
z
" id="DejaVuSans-80"/>
      <path d="M 18.109375 8.203125 
L 18.109375 -20.796875 
L 9.078125 -20.796875 
L 9.078125 54.6875 
L 18.109375 54.6875 
L 18.109375 46.390625 
Q 20.953125 51.265625 25.265625 53.625 
Q 29.59375 56 35.59375 56 
Q 45.5625 56 51.78125 48.09375 
Q 58.015625 40.1875 58.015625 27.296875 
Q 58.015625 14.40625 51.78125 6.484375 
Q 45.5625 -1.421875 35.59375 -1.421875 
Q 29.59375 -1.421875 25.265625 0.953125 
Q 20.953125 3.328125 18.109375 8.203125 
z
M 48.6875 27.296875 
Q 48.6875 37.203125 44.609375 42.84375 
Q 40.53125 48.484375 33.40625 48.484375 
Q 26.265625 48.484375 22.1875 42.84375 
Q 18.109375 37.203125 18.109375 27.296875 
Q 18.109375 17.390625 22.1875 11.75 
Q 26.265625 6.109375 33.40625 6.109375 
Q 40.53125 6.109375 44.609375 11.75 
Q 48.6875 17.390625 48.6875 27.296875 
z
" id="DejaVuSans-112"/>
      <path d="M 8.5 21.578125 
L 8.5 54.6875 
L 17.484375 54.6875 
L 17.484375 21.921875 
Q 17.484375 14.15625 20.5 10.265625 
Q 23.53125 6.390625 29.59375 6.390625 
Q 36.859375 6.390625 41.078125 11.03125 
Q 45.3125 15.671875 45.3125 23.6875 
L 45.3125 54.6875 
L 54.296875 54.6875 
L 54.296875 0 
L 45.3125 0 
L 45.3125 8.40625 
Q 42.046875 3.421875 37.71875 1 
Q 33.40625 -1.421875 27.6875 -1.421875 
Q 18.265625 -1.421875 13.375 4.4375 
Q 8.5 10.296875 8.5 21.578125 
z
M 31.109375 56 
z
" id="DejaVuSans-117"/>
      <path d="M 9.421875 75.984375 
L 18.40625 75.984375 
L 18.40625 0 
L 9.421875 0 
z
" id="DejaVuSans-108"/>
      <path d="M 17.921875 72.90625 
L 17.921875 45.796875 
L 9.625 45.796875 
L 9.625 72.90625 
z
" id="DejaVuSans-39"/>
      <path id="DejaVuSans-32"/>
      <path d="M 2.984375 54.6875 
L 12.5 54.6875 
L 29.59375 8.796875 
L 46.6875 54.6875 
L 56.203125 54.6875 
L 35.6875 0 
L 23.484375 0 
z
" id="DejaVuSans-118"/>
      <path d="M 45.40625 27.984375 
Q 45.40625 37.75 41.375 43.109375 
Q 37.359375 48.484375 30.078125 48.484375 
Q 22.859375 48.484375 18.828125 43.109375 
Q 14.796875 37.75 14.796875 27.984375 
Q 14.796875 18.265625 18.828125 12.890625 
Q 22.859375 7.515625 30.078125 7.515625 
Q 37.359375 7.515625 41.375 12.890625 
Q 45.40625 18.265625 45.40625 27.984375 
z
M 54.390625 6.78125 
Q 54.390625 -7.171875 48.1875 -13.984375 
Q 42 -20.796875 29.203125 -20.796875 
Q 24.46875 -20.796875 20.265625 -20.09375 
Q 16.0625 -19.390625 12.109375 -17.921875 
L 12.109375 -9.1875 
Q 16.0625 -11.328125 19.921875 -12.34375 
Q 23.78125 -13.375 27.78125 -13.375 
Q 36.625 -13.375 41.015625 -8.765625 
Q 45.40625 -4.15625 45.40625 5.171875 
L 45.40625 9.625 
Q 42.625 4.78125 38.28125 2.390625 
Q 33.9375 0 27.875 0 
Q 17.828125 0 11.671875 7.65625 
Q 5.515625 15.328125 5.515625 27.984375 
Q 5.515625 40.671875 11.671875 48.328125 
Q 17.828125 56 27.875 56 
Q 33.9375 56 38.28125 53.609375 
Q 42.625 51.21875 45.40625 46.390625 
L 45.40625 54.6875 
L 54.390625 54.6875 
z
" id="DejaVuSans-103"/>
      <path d="M 45.40625 46.390625 
L 45.40625 75.984375 
L 54.390625 75.984375 
L 54.390625 0 
L 45.40625 0 
L 45.40625 8.203125 
Q 42.578125 3.328125 38.25 0.953125 
Q 33.9375 -1.421875 27.875 -1.421875 
Q 17.96875 -1.421875 11.734375 6.484375 
Q 5.515625 14.40625 5.515625 27.296875 
Q 5.515625 40.1875 11.734375 48.09375 
Q 17.96875 56 27.875 56 
Q 33.9375 56 38.25 53.625 
Q 42.578125 51.265625 45.40625 46.390625 
z
M 14.796875 27.296875 
Q 14.796875 17.390625 18.875 11.75 
Q 22.953125 6.109375 30.078125 6.109375 
Q 37.203125 6.109375 41.296875 11.75 
Q 45.40625 17.390625 45.40625 27.296875 
Q 45.40625 37.203125 41.296875 42.84375 
Q 37.203125 48.484375 30.078125 48.484375 
Q 22.953125 48.484375 18.875 42.84375 
Q 14.796875 37.203125 14.796875 27.296875 
z
" id="DejaVuSans-100"/>
      <path d="M 48.6875 27.296875 
Q 48.6875 37.203125 44.609375 42.84375 
Q 40.53125 48.484375 33.40625 48.484375 
Q 26.265625 48.484375 22.1875 42.84375 
Q 18.109375 37.203125 18.109375 27.296875 
Q 18.109375 17.390625 22.1875 11.75 
Q 26.265625 6.109375 33.40625 6.109375 
Q 40.53125 6.109375 44.609375 11.75 
Q 48.6875 17.390625 48.6875 27.296875 
z
M 18.109375 46.390625 
Q 20.953125 51.265625 25.265625 53.625 
Q 29.59375 56 35.59375 56 
Q 45.5625 56 51.78125 48.09375 
Q 58.015625 40.1875 58.015625 27.296875 
Q 58.015625 14.40625 51.78125 6.484375 
Q 45.5625 -1.421875 35.59375 -1.421875 
Q 29.59375 -1.421875 25.265625 0.953125 
Q 20.953125 3.328125 18.109375 8.203125 
L 18.109375 0 
L 9.078125 0 
L 9.078125 75.984375 
L 18.109375 75.984375 
z
" id="DejaVuSans-98"/>
      <path d="M 37.109375 75.984375 
L 37.109375 68.5 
L 28.515625 68.5 
Q 23.6875 68.5 21.796875 66.546875 
Q 19.921875 64.59375 19.921875 59.515625 
L 19.921875 54.6875 
L 34.71875 54.6875 
L 34.71875 47.703125 
L 19.921875 47.703125 
L 19.921875 0 
L 10.890625 0 
L 10.890625 47.703125 
L 2.296875 47.703125 
L 2.296875 54.6875 
L 10.890625 54.6875 
L 10.890625 58.5 
Q 10.890625 67.625 15.140625 71.796875 
Q 19.390625 75.984375 28.609375 75.984375 
z
" id="DejaVuSans-102"/>
     </defs>
     <use xlink:href="#DejaVuSans-80"/>
     <use x="56.677734" xlink:href="#DejaVuSans-111"/>
     <use x="117.859375" xlink:href="#DejaVuSans-112"/>
     <use x="181.335938" xlink:href="#DejaVuSans-117"/>
     <use x="244.714844" xlink:href="#DejaVuSans-108"/>
     <use x="272.498047" xlink:href="#DejaVuSans-97"/>
     <use x="333.777344" xlink:href="#DejaVuSans-116"/>
     <use x="372.986328" xlink:href="#DejaVuSans-105"/>
     <use x="400.769531" xlink:href="#DejaVuSans-111"/>
     <use x="461.951172" xlink:href="#DejaVuSans-110"/>
     <use x="525.330078" xlink:href="#DejaVuSans-39"/>
     <use x="552.820312" xlink:href="#DejaVuSans-115"/>
     <use x="604.919922" xlink:href="#DejaVuSans-32"/>
     <use x="636.707031" xlink:href="#DejaVuSans-97"/>
     <use x="697.986328" xlink:href="#DejaVuSans-118"/>
     <use x="757.166016" xlink:href="#DejaVuSans-101"/>
     <use x="818.689453" xlink:href="#DejaVuSans-114"/>
     <use x="859.802734" xlink:href="#DejaVuSans-97"/>
     <use x="921.082031" xlink:href="#DejaVuSans-103"/>
     <use x="984.558594" xlink:href="#DejaVuSans-101"/>
     <use x="1046.082031" xlink:href="#DejaVuSans-32"/>
     <use x="1077.869141" xlink:href="#DejaVuSans-97"/>
     <use x="1139.148438" xlink:href="#DejaVuSans-110"/>
     <use x="1202.527344" xlink:href="#DejaVuSans-100"/>
     <use x="1266.003906" xlink:href="#DejaVuSans-32"/>
     <use x="1297.791016" xlink:href="#DejaVuSans-98"/>
     <use x="1361.267578" xlink:href="#DejaVuSans-101"/>
     <use x="1422.791016" xlink:href="#DejaVuSans-115"/>
     <use x="1474.890625" xlink:href="#DejaVuSans-116"/>
     <use x="1514.099609" xlink:href="#DejaVuSans-32"/>
     <use x="1545.886719" xlink:href="#DejaVuSans-102"/>
     <use x="1581.091797" xlink:href="#DejaVuSans-105"/>
     <use x="1608.875" xlink:href="#DejaVuSans-116"/>
     <use x="1648.083984" xlink:href="#DejaVuSans-110"/>
     <use x="1711.462891" xlink:href="#DejaVuSans-101"/>
     <use x="1772.986328" xlink:href="#DejaVuSans-115"/>
     <use x="1825.085938" xlink:href="#DejaVuSans-115"/>
    </g>
   </g>
   <g id="legend_1">
    <g id="patch_7">
     <path d="M 334.779375 302.584 
L 407.72 302.584 
Q 409.72 302.584 409.72 300.584 
L 409.72 257.549625 
Q 409.72 255.549625 407.72 255.549625 
L 334.779375 255.549625 
Q 332.779375 255.549625 332.779375 257.549625 
L 332.779375 300.584 
Q 332.779375 302.584 334.779375 302.584 
z
" style="fill:#ffffff;opacity:0.8;stroke:#cccccc;stroke-linejoin:miter;"/>
    </g>
    <g id="line2d_18">
     <path d="M 336.779375 263.648062 
L 356.779375 263.648062 
" style="fill:none;stroke:#0000ff;stroke-linecap:square;stroke-width:1.5;"/>
    </g>
    <g id="line2d_19"/>
    <g id="text_11">
     <!-- average -->
     <g transform="translate(364.779375 267.148062)scale(0.1 -0.1)">
      <use xlink:href="#DejaVuSans-97"/>
      <use x="61.279297" xlink:href="#DejaVuSans-118"/>
      <use x="120.458984" xlink:href="#DejaVuSans-101"/>
      <use x="181.982422" xlink:href="#DejaVuSans-114"/>
      <use x="223.095703" xlink:href="#DejaVuSans-97"/>
      <use x="284.375" xlink:href="#DejaVuSans-103"/>
      <use x="347.851562" xlink:href="#DejaVuSans-101"/>
     </g>
    </g>
    <g id="line2d_20">
     <path d="M 336.779375 278.326188 
L 356.779375 278.326188 
" style="fill:none;stroke:#008000;stroke-dasharray:9.6,2.4,1.5,2.4;stroke-dashoffset:0;stroke-width:1.5;"/>
    </g>
    <g id="line2d_21"/>
    <g id="text_12">
     <!-- +1 sd -->
     <g transform="translate(364.779375 281.826188)scale(0.1 -0.1)">
      <defs>
       <path d="M 46 62.703125 
L 46 35.5 
L 73.1875 35.5 
L 73.1875 27.203125 
L 46 27.203125 
L 46 0 
L 37.796875 0 
L 37.796875 27.203125 
L 10.59375 27.203125 
L 10.59375 35.5 
L 37.796875 35.5 
L 37.796875 62.703125 
z
" id="DejaVuSans-43"/>
      </defs>
      <use xlink:href="#DejaVuSans-43"/>
      <use x="83.789062" xlink:href="#DejaVuSans-49"/>
      <use x="147.412109" xlink:href="#DejaVuSans-32"/>
      <use x="179.199219" xlink:href="#DejaVuSans-115"/>
      <use x="231.298828" xlink:href="#DejaVuSans-100"/>
     </g>
    </g>
    <g id="line2d_22">
     <path d="M 336.779375 293.004312 
L 356.779375 293.004312 
" style="fill:none;stroke:#ff0000;stroke-linecap:square;stroke-width:1.5;"/>
    </g>
    <g id="line2d_23"/>
    <g id="text_13">
     <!-- best -->
     <g transform="translate(364.779375 296.504312)scale(0.1 -0.1)">
      <use xlink:href="#DejaVuSans-98"/>
      <use x="63.476562" xlink:href="#DejaVuSans-101"/>
      <use x="125" xlink:href="#DejaVuSans-115"/>
      <use x="177.099609" xlink:href="#DejaVuSans-116"/>
     </g>
    </g>
   </g>
  </g>
 </g>
 <defs>
  <clipPath id="pc608141c62">
   <rect height="266.112" width="357.12" x="57.6" y="41.472"/>
  </clipPath>
 </defs>
</svg>
