<?xml version="1.0" encoding="utf-8" standalone="no"?>
<!DOCTYPE svg PUBLIC "-//W3C//DTD SVG 1.1//EN"
  "http://www.w3.org/Graphics/SVG/1.1/DTD/svg11.dtd">
<!-- Created with matplotlib (https://matplotlib.org/) -->
<svg height="345.6pt" version="1.1" viewBox="0 0 460.8 345.6" width="460.8pt" xmlns="http://www.w3.org/2000/svg" xmlns:xlink="http://www.w3.org/1999/xlink">
 <metadata>
  <rdf:RDF xmlns:cc="http://creativecommons.org/ns#" xmlns:dc="http://purl.org/dc/elements/1.1/" xmlns:rdf="http://www.w3.org/1999/02/22-rdf-syntax-ns#">
   <cc:Work>
    <dc:type rdf:resource="http://purl.org/dc/dcmitype/StillImage"/>
    <dc:date>2020-12-13T03:37:10.097284</dc:date>
    <dc:format>image/svg+xml</dc:format>
    <dc:creator>
     <cc:Agent>
      <dc:title>Matplotlib v3.3.3, https://matplotlib.org/</dc:title>
     </cc:Agent>
    </dc:creator>
   </cc:Work>
  </rdf:RDF>
 </metadata>
 <defs>
  <style type="text/css">*{stroke-linecap:butt;stroke-linejoin:round;}</style>
 </defs>
 <g id="figure_1">
  <g id="patch_1">
   <path d="M 0 345.6 
L 460.8 345.6 
L 460.8 0 
L 0 0 
z
" style="fill:#ffffff;"/>
  </g>
  <g id="axes_1">
   <g id="patch_2">
    <path d="M 57.6 307.584 
L 414.72 307.584 
L 414.72 41.472 
L 57.6 41.472 
z
" style="fill:#ffffff;"/>
   </g>
   <g id="matplotlib.axis_1">
    <g id="xtick_1">
     <g id="line2d_1">
      <path clip-path="url(#pdc4556af18)" d="M 73.832727 307.584 
L 73.832727 41.472 
" style="fill:none;stroke:#b0b0b0;stroke-linecap:square;stroke-width:0.8;"/>
     </g>
     <g id="line2d_2">
      <defs>
       <path d="M 0 0 
L 0 3.5 
" id="m25b0742e50" style="stroke:#000000;stroke-width:0.8;"/>
      </defs>
      <g>
       <use style="stroke:#000000;stroke-width:0.8;" x="73.832727" xlink:href="#m25b0742e50" y="307.584"/>
      </g>
     </g>
     <g id="text_1">
      <!-- 0 -->
      <g transform="translate(70.651477 322.182437)scale(0.1 -0.1)">
       <defs>
        <path d="M 31.78125 66.40625 
Q 24.171875 66.40625 20.328125 58.90625 
Q 16.5 51.421875 16.5 36.375 
Q 16.5 21.390625 20.328125 13.890625 
Q 24.171875 6.390625 31.78125 6.390625 
Q 39.453125 6.390625 43.28125 13.890625 
Q 47.125 21.390625 47.125 36.375 
Q 47.125 51.421875 43.28125 58.90625 
Q 39.453125 66.40625 31.78125 66.40625 
z
M 31.78125 74.21875 
Q 44.046875 74.21875 50.515625 64.515625 
Q 56.984375 54.828125 56.984375 36.375 
Q 56.984375 17.96875 50.515625 8.265625 
Q 44.046875 -1.421875 31.78125 -1.421875 
Q 19.53125 -1.421875 13.0625 8.265625 
Q 6.59375 17.96875 6.59375 36.375 
Q 6.59375 54.828125 13.0625 64.515625 
Q 19.53125 74.21875 31.78125 74.21875 
z
" id="DejaVuSans-48"/>
       </defs>
       <use xlink:href="#DejaVuSans-48"/>
      </g>
     </g>
    </g>
    <g id="xtick_2">
     <g id="line2d_3">
      <path clip-path="url(#pdc4556af18)" d="M 120.478495 307.584 
L 120.478495 41.472 
" style="fill:none;stroke:#b0b0b0;stroke-linecap:square;stroke-width:0.8;"/>
     </g>
     <g id="line2d_4">
      <g>
       <use style="stroke:#000000;stroke-width:0.8;" x="120.478495" xlink:href="#m25b0742e50" y="307.584"/>
      </g>
     </g>
     <g id="text_2">
      <!-- 200 -->
      <g transform="translate(110.934745 322.182437)scale(0.1 -0.1)">
       <defs>
        <path d="M 19.1875 8.296875 
L 53.609375 8.296875 
L 53.609375 0 
L 7.328125 0 
L 7.328125 8.296875 
Q 12.9375 14.109375 22.625 23.890625 
Q 32.328125 33.6875 34.8125 36.53125 
Q 39.546875 41.84375 41.421875 45.53125 
Q 43.3125 49.21875 43.3125 52.78125 
Q 43.3125 58.59375 39.234375 62.25 
Q 35.15625 65.921875 28.609375 65.921875 
Q 23.96875 65.921875 18.8125 64.3125 
Q 13.671875 62.703125 7.8125 59.421875 
L 7.8125 69.390625 
Q 13.765625 71.78125 18.9375 73 
Q 24.125 74.21875 28.421875 74.21875 
Q 39.75 74.21875 46.484375 68.546875 
Q 53.21875 62.890625 53.21875 53.421875 
Q 53.21875 48.921875 51.53125 44.890625 
Q 49.859375 40.875 45.40625 35.40625 
Q 44.1875 33.984375 37.640625 27.21875 
Q 31.109375 20.453125 19.1875 8.296875 
z
" id="DejaVuSans-50"/>
       </defs>
       <use xlink:href="#DejaVuSans-50"/>
       <use x="63.623047" xlink:href="#DejaVuSans-48"/>
       <use x="127.246094" xlink:href="#DejaVuSans-48"/>
      </g>
     </g>
    </g>
    <g id="xtick_3">
     <g id="line2d_5">
      <path clip-path="url(#pdc4556af18)" d="M 167.124263 307.584 
L 167.124263 41.472 
" style="fill:none;stroke:#b0b0b0;stroke-linecap:square;stroke-width:0.8;"/>
     </g>
     <g id="line2d_6">
      <g>
       <use style="stroke:#000000;stroke-width:0.8;" x="167.124263" xlink:href="#m25b0742e50" y="307.584"/>
      </g>
     </g>
     <g id="text_3">
      <!-- 400 -->
      <g transform="translate(157.580513 322.182437)scale(0.1 -0.1)">
       <defs>
        <path d="M 37.796875 64.3125 
L 12.890625 25.390625 
L 37.796875 25.390625 
z
M 35.203125 72.90625 
L 47.609375 72.90625 
L 47.609375 25.390625 
L 58.015625 25.390625 
L 58.015625 17.1875 
L 47.609375 17.1875 
L 47.609375 0 
L 37.796875 0 
L 37.796875 17.1875 
L 4.890625 17.1875 
L 4.890625 26.703125 
z
" id="DejaVuSans-52"/>
       </defs>
       <use xlink:href="#DejaVuSans-52"/>
       <use x="63.623047" xlink:href="#DejaVuSans-48"/>
       <use x="127.246094" xlink:href="#DejaVuSans-48"/>
      </g>
     </g>
    </g>
    <g id="xtick_4">
     <g id="line2d_7">
      <path clip-path="url(#pdc4556af18)" d="M 213.770031 307.584 
L 213.770031 41.472 
" style="fill:none;stroke:#b0b0b0;stroke-linecap:square;stroke-width:0.8;"/>
     </g>
     <g id="line2d_8">
      <g>
       <use style="stroke:#000000;stroke-width:0.8;" x="213.770031" xlink:href="#m25b0742e50" y="307.584"/>
      </g>
     </g>
     <g id="text_4">
      <!-- 600 -->
      <g transform="translate(204.226281 322.182437)scale(0.1 -0.1)">
       <defs>
        <path d="M 33.015625 40.375 
Q 26.375 40.375 22.484375 35.828125 
Q 18.609375 31.296875 18.609375 23.390625 
Q 18.609375 15.53125 22.484375 10.953125 
Q 26.375 6.390625 33.015625 6.390625 
Q 39.65625 6.390625 43.53125 10.953125 
Q 47.40625 15.53125 47.40625 23.390625 
Q 47.40625 31.296875 43.53125 35.828125 
Q 39.65625 40.375 33.015625 40.375 
z
M 52.59375 71.296875 
L 52.59375 62.3125 
Q 48.875 64.0625 45.09375 64.984375 
Q 41.3125 65.921875 37.59375 65.921875 
Q 27.828125 65.921875 22.671875 59.328125 
Q 17.53125 52.734375 16.796875 39.40625 
Q 19.671875 43.65625 24.015625 45.921875 
Q 28.375 48.1875 33.59375 48.1875 
Q 44.578125 48.1875 50.953125 41.515625 
Q 57.328125 34.859375 57.328125 23.390625 
Q 57.328125 12.15625 50.6875 5.359375 
Q 44.046875 -1.421875 33.015625 -1.421875 
Q 20.359375 -1.421875 13.671875 8.265625 
Q 6.984375 17.96875 6.984375 36.375 
Q 6.984375 53.65625 15.1875 63.9375 
Q 23.390625 74.21875 37.203125 74.21875 
Q 40.921875 74.21875 44.703125 73.484375 
Q 48.484375 72.75 52.59375 71.296875 
z
" id="DejaVuSans-54"/>
       </defs>
       <use xlink:href="#DejaVuSans-54"/>
       <use x="63.623047" xlink:href="#DejaVuSans-48"/>
       <use x="127.246094" xlink:href="#DejaVuSans-48"/>
      </g>
     </g>
    </g>
    <g id="xtick_5">
     <g id="line2d_9">
      <path clip-path="url(#pdc4556af18)" d="M 260.415799 307.584 
L 260.415799 41.472 
" style="fill:none;stroke:#b0b0b0;stroke-linecap:square;stroke-width:0.8;"/>
     </g>
     <g id="line2d_10">
      <g>
       <use style="stroke:#000000;stroke-width:0.8;" x="260.415799" xlink:href="#m25b0742e50" y="307.584"/>
      </g>
     </g>
     <g id="text_5">
      <!-- 800 -->
      <g transform="translate(250.872049 322.182437)scale(0.1 -0.1)">
       <defs>
        <path d="M 31.78125 34.625 
Q 24.75 34.625 20.71875 30.859375 
Q 16.703125 27.09375 16.703125 20.515625 
Q 16.703125 13.921875 20.71875 10.15625 
Q 24.75 6.390625 31.78125 6.390625 
Q 38.8125 6.390625 42.859375 10.171875 
Q 46.921875 13.96875 46.921875 20.515625 
Q 46.921875 27.09375 42.890625 30.859375 
Q 38.875 34.625 31.78125 34.625 
z
M 21.921875 38.8125 
Q 15.578125 40.375 12.03125 44.71875 
Q 8.5 49.078125 8.5 55.328125 
Q 8.5 64.0625 14.71875 69.140625 
Q 20.953125 74.21875 31.78125 74.21875 
Q 42.671875 74.21875 48.875 69.140625 
Q 55.078125 64.0625 55.078125 55.328125 
Q 55.078125 49.078125 51.53125 44.71875 
Q 48 40.375 41.703125 38.8125 
Q 48.828125 37.15625 52.796875 32.3125 
Q 56.78125 27.484375 56.78125 20.515625 
Q 56.78125 9.90625 50.3125 4.234375 
Q 43.84375 -1.421875 31.78125 -1.421875 
Q 19.734375 -1.421875 13.25 4.234375 
Q 6.78125 9.90625 6.78125 20.515625 
Q 6.78125 27.484375 10.78125 32.3125 
Q 14.796875 37.15625 21.921875 38.8125 
z
M 18.3125 54.390625 
Q 18.3125 48.734375 21.84375 45.5625 
Q 25.390625 42.390625 31.78125 42.390625 
Q 38.140625 42.390625 41.71875 45.5625 
Q 45.3125 48.734375 45.3125 54.390625 
Q 45.3125 60.0625 41.71875 63.234375 
Q 38.140625 66.40625 31.78125 66.40625 
Q 25.390625 66.40625 21.84375 63.234375 
Q 18.3125 60.0625 18.3125 54.390625 
z
" id="DejaVuSans-56"/>
       </defs>
       <use xlink:href="#DejaVuSans-56"/>
       <use x="63.623047" xlink:href="#DejaVuSans-48"/>
       <use x="127.246094" xlink:href="#DejaVuSans-48"/>
      </g>
     </g>
    </g>
    <g id="xtick_6">
     <g id="line2d_11">
      <path clip-path="url(#pdc4556af18)" d="M 307.061567 307.584 
L 307.061567 41.472 
" style="fill:none;stroke:#b0b0b0;stroke-linecap:square;stroke-width:0.8;"/>
     </g>
     <g id="line2d_12">
      <g>
       <use style="stroke:#000000;stroke-width:0.8;" x="307.061567" xlink:href="#m25b0742e50" y="307.584"/>
      </g>
     </g>
     <g id="text_6">
      <!-- 1000 -->
      <g transform="translate(294.336567 322.182437)scale(0.1 -0.1)">
       <defs>
        <path d="M 12.40625 8.296875 
L 28.515625 8.296875 
L 28.515625 63.921875 
L 10.984375 60.40625 
L 10.984375 69.390625 
L 28.421875 72.90625 
L 38.28125 72.90625 
L 38.28125 8.296875 
L 54.390625 8.296875 
L 54.390625 0 
L 12.40625 0 
z
" id="DejaVuSans-49"/>
       </defs>
       <use xlink:href="#DejaVuSans-49"/>
       <use x="63.623047" xlink:href="#DejaVuSans-48"/>
       <use x="127.246094" xlink:href="#DejaVuSans-48"/>
       <use x="190.869141" xlink:href="#DejaVuSans-48"/>
      </g>
     </g>
    </g>
    <g id="xtick_7">
     <g id="line2d_13">
      <path clip-path="url(#pdc4556af18)" d="M 353.707335 307.584 
L 353.707335 41.472 
" style="fill:none;stroke:#b0b0b0;stroke-linecap:square;stroke-width:0.8;"/>
     </g>
     <g id="line2d_14">
      <g>
       <use style="stroke:#000000;stroke-width:0.8;" x="353.707335" xlink:href="#m25b0742e50" y="307.584"/>
      </g>
     </g>
     <g id="text_7">
      <!-- 1200 -->
      <g transform="translate(340.982335 322.182437)scale(0.1 -0.1)">
       <use xlink:href="#DejaVuSans-49"/>
       <use x="63.623047" xlink:href="#DejaVuSans-50"/>
       <use x="127.246094" xlink:href="#DejaVuSans-48"/>
       <use x="190.869141" xlink:href="#DejaVuSans-48"/>
      </g>
     </g>
    </g>
    <g id="xtick_8">
     <g id="line2d_15">
      <path clip-path="url(#pdc4556af18)" d="M 400.353103 307.584 
L 400.353103 41.472 
" style="fill:none;stroke:#b0b0b0;stroke-linecap:square;stroke-width:0.8;"/>
     </g>
     <g id="line2d_16">
      <g>
       <use style="stroke:#000000;stroke-width:0.8;" x="400.353103" xlink:href="#m25b0742e50" y="307.584"/>
      </g>
     </g>
     <g id="text_8">
      <!-- 1400 -->
      <g transform="translate(387.628103 322.182437)scale(0.1 -0.1)">
       <use xlink:href="#DejaVuSans-49"/>
       <use x="63.623047" xlink:href="#DejaVuSans-52"/>
       <use x="127.246094" xlink:href="#DejaVuSans-48"/>
       <use x="190.869141" xlink:href="#DejaVuSans-48"/>
      </g>
     </g>
    </g>
    <g id="text_9">
     <!-- Generations -->
     <g transform="translate(205.662344 335.860562)scale(0.1 -0.1)">
      <defs>
       <path d="M 59.515625 10.40625 
L 59.515625 29.984375 
L 43.40625 29.984375 
L 43.40625 38.09375 
L 69.28125 38.09375 
L 69.28125 6.78125 
Q 63.578125 2.734375 56.6875 0.65625 
Q 49.8125 -1.421875 42 -1.421875 
Q 24.90625 -1.421875 15.25 8.5625 
Q 5.609375 18.5625 5.609375 36.375 
Q 5.609375 54.25 15.25 64.234375 
Q 24.90625 74.21875 42 74.21875 
Q 49.125 74.21875 55.546875 72.453125 
Q 61.96875 70.703125 67.390625 67.28125 
L 67.390625 56.78125 
Q 61.921875 61.421875 55.765625 63.765625 
Q 49.609375 66.109375 42.828125 66.109375 
Q 29.4375 66.109375 22.71875 58.640625 
Q 16.015625 51.171875 16.015625 36.375 
Q 16.015625 21.625 22.71875 14.15625 
Q 29.4375 6.6875 42.828125 6.6875 
Q 48.046875 6.6875 52.140625 7.59375 
Q 56.25 8.5 59.515625 10.40625 
z
" id="DejaVuSans-71"/>
       <path d="M 56.203125 29.59375 
L 56.203125 25.203125 
L 14.890625 25.203125 
Q 15.484375 15.921875 20.484375 11.0625 
Q 25.484375 6.203125 34.421875 6.203125 
Q 39.59375 6.203125 44.453125 7.46875 
Q 49.3125 8.734375 54.109375 11.28125 
L 54.109375 2.78125 
Q 49.265625 0.734375 44.1875 -0.34375 
Q 39.109375 -1.421875 33.890625 -1.421875 
Q 20.796875 -1.421875 13.15625 6.1875 
Q 5.515625 13.8125 5.515625 26.8125 
Q 5.515625 40.234375 12.765625 48.109375 
Q 20.015625 56 32.328125 56 
Q 43.359375 56 49.78125 48.890625 
Q 56.203125 41.796875 56.203125 29.59375 
z
M 47.21875 32.234375 
Q 47.125 39.59375 43.09375 43.984375 
Q 39.0625 48.390625 32.421875 48.390625 
Q 24.90625 48.390625 20.390625 44.140625 
Q 15.875 39.890625 15.1875 32.171875 
z
" id="DejaVuSans-101"/>
       <path d="M 54.890625 33.015625 
L 54.890625 0 
L 45.90625 0 
L 45.90625 32.71875 
Q 45.90625 40.484375 42.875 44.328125 
Q 39.84375 48.1875 33.796875 48.1875 
Q 26.515625 48.1875 22.3125 43.546875 
Q 18.109375 38.921875 18.109375 30.90625 
L 18.109375 0 
L 9.078125 0 
L 9.078125 54.6875 
L 18.109375 54.6875 
L 18.109375 46.1875 
Q 21.34375 51.125 25.703125 53.5625 
Q 30.078125 56 35.796875 56 
Q 45.21875 56 50.046875 50.171875 
Q 54.890625 44.34375 54.890625 33.015625 
z
" id="DejaVuSans-110"/>
       <path d="M 41.109375 46.296875 
Q 39.59375 47.171875 37.8125 47.578125 
Q 36.03125 48 33.890625 48 
Q 26.265625 48 22.1875 43.046875 
Q 18.109375 38.09375 18.109375 28.8125 
L 18.109375 0 
L 9.078125 0 
L 9.078125 54.6875 
L 18.109375 54.6875 
L 18.109375 46.1875 
Q 20.953125 51.171875 25.484375 53.578125 
Q 30.03125 56 36.53125 56 
Q 37.453125 56 38.578125 55.875 
Q 39.703125 55.765625 41.0625 55.515625 
z
" id="DejaVuSans-114"/>
       <path d="M 34.28125 27.484375 
Q 23.390625 27.484375 19.1875 25 
Q 14.984375 22.515625 14.984375 16.5 
Q 14.984375 11.71875 18.140625 8.90625 
Q 21.296875 6.109375 26.703125 6.109375 
Q 34.1875 6.109375 38.703125 11.40625 
Q 43.21875 16.703125 43.21875 25.484375 
L 43.21875 27.484375 
z
M 52.203125 31.203125 
L 52.203125 0 
L 43.21875 0 
L 43.21875 8.296875 
Q 40.140625 3.328125 35.546875 0.953125 
Q 30.953125 -1.421875 24.3125 -1.421875 
Q 15.921875 -1.421875 10.953125 3.296875 
Q 6 8.015625 6 15.921875 
Q 6 25.140625 12.171875 29.828125 
Q 18.359375 34.515625 30.609375 34.515625 
L 43.21875 34.515625 
L 43.21875 35.40625 
Q 43.21875 41.609375 39.140625 45 
Q 35.0625 48.390625 27.6875 48.390625 
Q 23 48.390625 18.546875 47.265625 
Q 14.109375 46.140625 10.015625 43.890625 
L 10.015625 52.203125 
Q 14.9375 54.109375 19.578125 55.046875 
Q 24.21875 56 28.609375 56 
Q 40.484375 56 46.34375 49.84375 
Q 52.203125 43.703125 52.203125 31.203125 
z
" id="DejaVuSans-97"/>
       <path d="M 18.3125 70.21875 
L 18.3125 54.6875 
L 36.8125 54.6875 
L 36.8125 47.703125 
L 18.3125 47.703125 
L 18.3125 18.015625 
Q 18.3125 11.328125 20.140625 9.421875 
Q 21.96875 7.515625 27.59375 7.515625 
L 36.8125 7.515625 
L 36.8125 0 
L 27.59375 0 
Q 17.1875 0 13.234375 3.875 
Q 9.28125 7.765625 9.28125 18.015625 
L 9.28125 47.703125 
L 2.6875 47.703125 
L 2.6875 54.6875 
L 9.28125 54.6875 
L 9.28125 70.21875 
z
" id="DejaVuSans-116"/>
       <path d="M 9.421875 54.6875 
L 18.40625 54.6875 
L 18.40625 0 
L 9.421875 0 
z
M 9.421875 75.984375 
L 18.40625 75.984375 
L 18.40625 64.59375 
L 9.421875 64.59375 
z
" id="DejaVuSans-105"/>
       <path d="M 30.609375 48.390625 
Q 23.390625 48.390625 19.1875 42.75 
Q 14.984375 37.109375 14.984375 27.296875 
Q 14.984375 17.484375 19.15625 11.84375 
Q 23.34375 6.203125 30.609375 6.203125 
Q 37.796875 6.203125 41.984375 11.859375 
Q 46.1875 17.53125 46.1875 27.296875 
Q 46.1875 37.015625 41.984375 42.703125 
Q 37.796875 48.390625 30.609375 48.390625 
z
M 30.609375 56 
Q 42.328125 56 49.015625 48.375 
Q 55.71875 40.765625 55.71875 27.296875 
Q 55.71875 13.875 49.015625 6.21875 
Q 42.328125 -1.421875 30.609375 -1.421875 
Q 18.84375 -1.421875 12.171875 6.21875 
Q 5.515625 13.875 5.515625 27.296875 
Q 5.515625 40.765625 12.171875 48.375 
Q 18.84375 56 30.609375 56 
z
" id="DejaVuSans-111"/>
       <path d="M 44.28125 53.078125 
L 44.28125 44.578125 
Q 40.484375 46.53125 36.375 47.5 
Q 32.28125 48.484375 27.875 48.484375 
Q 21.1875 48.484375 17.84375 46.4375 
Q 14.5 44.390625 14.5 40.28125 
Q 14.5 37.15625 16.890625 35.375 
Q 19.28125 33.59375 26.515625 31.984375 
L 29.59375 31.296875 
Q 39.15625 29.25 43.1875 25.515625 
Q 47.21875 21.78125 47.21875 15.09375 
Q 47.21875 7.46875 41.1875 3.015625 
Q 35.15625 -1.421875 24.609375 -1.421875 
Q 20.21875 -1.421875 15.453125 -0.5625 
Q 10.6875 0.296875 5.421875 2 
L 5.421875 11.28125 
Q 10.40625 8.6875 15.234375 7.390625 
Q 20.0625 6.109375 24.8125 6.109375 
Q 31.15625 6.109375 34.5625 8.28125 
Q 37.984375 10.453125 37.984375 14.40625 
Q 37.984375 18.0625 35.515625 20.015625 
Q 33.0625 21.96875 24.703125 23.78125 
L 21.578125 24.515625 
Q 13.234375 26.265625 9.515625 29.90625 
Q 5.8125 33.546875 5.8125 39.890625 
Q 5.8125 47.609375 11.28125 51.796875 
Q 16.75 56 26.8125 56 
Q 31.78125 56 36.171875 55.265625 
Q 40.578125 54.546875 44.28125 53.078125 
z
" id="DejaVuSans-115"/>
      </defs>
      <use xlink:href="#DejaVuSans-71"/>
      <use x="77.490234" xlink:href="#DejaVuSans-101"/>
      <use x="139.013672" xlink:href="#DejaVuSans-110"/>
      <use x="202.392578" xlink:href="#DejaVuSans-101"/>
      <use x="263.916016" xlink:href="#DejaVuSans-114"/>
      <use x="305.029297" xlink:href="#DejaVuSans-97"/>
      <use x="366.308594" xlink:href="#DejaVuSans-116"/>
      <use x="405.517578" xlink:href="#DejaVuSans-105"/>
      <use x="433.300781" xlink:href="#DejaVuSans-111"/>
      <use x="494.482422" xlink:href="#DejaVuSans-110"/>
      <use x="557.861328" xlink:href="#DejaVuSans-115"/>
     </g>
    </g>
   </g>
   <g id="matplotlib.axis_2">
    <g id="ytick_1">
     <g id="line2d_17">
      <path clip-path="url(#pdc4556af18)" d="M 57.6 161.696749 
L 414.72 161.696749 
" style="fill:none;stroke:#b0b0b0;stroke-linecap:square;stroke-width:0.8;"/>
     </g>
     <g id="line2d_18">
      <defs>
       <path d="M 0 0 
L -3.5 0 
" id="mb2777c1af1" style="stroke:#000000;stroke-width:0.8;"/>
      </defs>
      <g>
       <use style="stroke:#000000;stroke-width:0.8;" x="57.6" xlink:href="#mb2777c1af1" y="161.696749"/>
      </g>
     </g>
     <g id="text_10">
      <!-- $\mathdefault{10^{3}}$ -->
      <g transform="translate(33 165.495968)scale(0.1 -0.1)">
       <defs>
        <path d="M 40.578125 39.3125 
Q 47.65625 37.796875 51.625 33 
Q 55.609375 28.21875 55.609375 21.1875 
Q 55.609375 10.40625 48.1875 4.484375 
Q 40.765625 -1.421875 27.09375 -1.421875 
Q 22.515625 -1.421875 17.65625 -0.515625 
Q 12.796875 0.390625 7.625 2.203125 
L 7.625 11.71875 
Q 11.71875 9.328125 16.59375 8.109375 
Q 21.484375 6.890625 26.8125 6.890625 
Q 36.078125 6.890625 40.9375 10.546875 
Q 45.796875 14.203125 45.796875 21.1875 
Q 45.796875 27.640625 41.28125 31.265625 
Q 36.765625 34.90625 28.71875 34.90625 
L 20.21875 34.90625 
L 20.21875 43.015625 
L 29.109375 43.015625 
Q 36.375 43.015625 40.234375 45.921875 
Q 44.09375 48.828125 44.09375 54.296875 
Q 44.09375 59.90625 40.109375 62.90625 
Q 36.140625 65.921875 28.71875 65.921875 
Q 24.65625 65.921875 20.015625 65.03125 
Q 15.375 64.15625 9.8125 62.3125 
L 9.8125 71.09375 
Q 15.4375 72.65625 20.34375 73.4375 
Q 25.25 74.21875 29.59375 74.21875 
Q 40.828125 74.21875 47.359375 69.109375 
Q 53.90625 64.015625 53.90625 55.328125 
Q 53.90625 49.265625 50.4375 45.09375 
Q 46.96875 40.921875 40.578125 39.3125 
z
" id="DejaVuSans-51"/>
       </defs>
       <use transform="translate(0 0.765625)" xlink:href="#DejaVuSans-49"/>
       <use transform="translate(63.623047 0.765625)" xlink:href="#DejaVuSans-48"/>
       <use transform="translate(128.203125 39.046875)scale(0.7)" xlink:href="#DejaVuSans-51"/>
      </g>
     </g>
    </g>
    <g id="text_11">
     <!-- Fitness -->
     <g transform="translate(26.920312 191.845187)rotate(-90)scale(0.1 -0.1)">
      <defs>
       <path d="M 9.8125 72.90625 
L 51.703125 72.90625 
L 51.703125 64.59375 
L 19.671875 64.59375 
L 19.671875 43.109375 
L 48.578125 43.109375 
L 48.578125 34.8125 
L 19.671875 34.8125 
L 19.671875 0 
L 9.8125 0 
z
" id="DejaVuSans-70"/>
      </defs>
      <use xlink:href="#DejaVuSans-70"/>
      <use x="50.269531" xlink:href="#DejaVuSans-105"/>
      <use x="78.052734" xlink:href="#DejaVuSans-116"/>
      <use x="117.261719" xlink:href="#DejaVuSans-110"/>
      <use x="180.640625" xlink:href="#DejaVuSans-101"/>
      <use x="242.164062" xlink:href="#DejaVuSans-115"/>
      <use x="294.263672" xlink:href="#DejaVuSans-115"/>
     </g>
    </g>
   </g>
   <g id="line2d_19">
    <path clip-path="url(#pdc4556af18)" d="M 73.832727 295.488 
L 74.765643 241.043897 
L 74.998871 242.395837 
L 75.2321 221.152784 
L 75.465329 225.040987 
L 75.698558 216.744045 
L 75.931787 213.859722 
L 76.165016 203.144618 
L 76.398245 216.434798 
L 76.631473 208.75889 
L 76.864702 210.252849 
L 77.097931 212.545854 
L 77.33116 215.945367 
L 77.564389 205.384169 
L 77.797618 212.30612 
L 78.030846 214.487231 
L 78.264075 198.472085 
L 78.730533 208.992769 
L 78.963762 212.749192 
L 79.196991 210.506454 
L 79.430219 205.620989 
L 79.663448 212.74144 
L 79.896677 208.578476 
L 80.129906 210.087732 
L 80.363135 205.23791 
L 80.596364 204.31258 
L 80.829592 204.593152 
L 81.062821 205.747637 
L 81.29605 206.022915 
L 81.762508 199.484765 
L 81.995737 207.577654 
L 82.228966 200.399127 
L 82.462194 210.019797 
L 82.695423 206.528537 
L 82.928652 195.860744 
L 83.161881 192.729492 
L 83.39511 194.645958 
L 83.628339 207.237982 
L 83.861567 204.450388 
L 84.328025 208.459061 
L 84.561254 200.115689 
L 84.794483 206.307917 
L 85.027712 201.851271 
L 85.26094 200.953477 
L 85.494169 209.717938 
L 85.727398 209.341494 
L 85.960627 202.963311 
L 86.193856 207.599368 
L 86.427085 198.224259 
L 86.660313 211.119606 
L 87.126771 195.86303 
L 87.36 199.005573 
L 87.593229 211.243993 
L 87.826458 201.009003 
L 88.059687 204.667169 
L 88.292915 200.14041 
L 88.526144 202.974366 
L 88.759373 210.018372 
L 88.992602 210.830826 
L 89.225831 206.095856 
L 89.45906 209.727373 
L 89.692288 202.315103 
L 89.925517 206.511553 
L 90.158746 196.088517 
L 90.391975 204.868723 
L 90.625204 197.085267 
L 91.091661 205.797486 
L 91.32489 204.0297 
L 91.791348 193.662514 
L 92.024577 193.601159 
L 92.257806 203.384448 
L 92.724263 199.240747 
L 92.957492 195.836631 
L 93.190721 198.614096 
L 93.42395 191.868033 
L 93.657179 205.538005 
L 93.890408 203.610395 
L 94.123636 206.52665 
L 94.356865 198.367807 
L 94.590094 202.38029 
L 94.823323 199.281353 
L 95.056552 201.535169 
L 95.289781 200.8281 
L 95.523009 210.449294 
L 95.756238 201.627916 
L 96.222696 210.460262 
L 96.455925 200.60093 
L 96.922382 191.748508 
L 97.155611 198.614096 
L 97.38884 200.044478 
L 97.622069 205.939184 
L 97.855298 196.208962 
L 98.088527 200.864217 
L 98.321755 200.987275 
L 98.554984 195.968111 
L 98.788213 201.272024 
L 99.021442 209.289986 
L 99.254671 205.062242 
L 99.4879 204.071975 
L 99.721129 204.563229 
L 99.954357 211.329181 
L 100.420815 200.524589 
L 100.654044 202.997519 
L 100.887273 207.612702 
L 101.120502 191.833872 
L 101.586959 209.198464 
L 101.820188 200.384851 
L 102.286646 209.133674 
L 102.519875 200.224358 
L 102.753103 211.868672 
L 102.986332 211.230445 
L 103.219561 204.368331 
L 103.45279 213.175947 
L 103.686019 205.952205 
L 103.919248 209.009333 
L 104.152476 203.073963 
L 104.385705 203.425191 
L 104.618934 204.279173 
L 104.852163 209.96363 
L 105.085392 208.551763 
L 105.318621 198.066921 
L 105.55185 205.082571 
L 105.785078 197.303413 
L 106.018307 199.256581 
L 106.251536 192.759263 
L 106.484765 199.952069 
L 106.717994 193.05114 
L 106.951223 189.72782 
L 107.41768 208.149005 
L 107.650909 206.507667 
L 107.884138 201.42739 
L 108.117367 207.629506 
L 108.350596 195.817451 
L 108.817053 189.824094 
L 109.050282 203.849977 
L 109.283511 193.932317 
L 109.51674 194.511355 
L 109.749969 197.364489 
L 109.983197 194.549203 
L 110.216426 197.43952 
L 110.449655 190.733135 
L 110.682884 195.649476 
L 110.916113 192.054448 
L 111.149342 196.671333 
L 111.382571 184.803852 
L 111.615799 195.862291 
L 111.849028 187.538878 
L 112.082257 189.555916 
L 112.548715 197.166176 
L 112.781944 193.581477 
L 113.015172 192.358981 
L 113.248401 198.343203 
L 113.714859 189.297883 
L 113.948088 182.803714 
L 114.181317 194.212989 
L 114.414545 197.894808 
L 114.647774 193.160969 
L 114.881003 206.690916 
L 115.114232 193.748219 
L 115.347461 196.85703 
L 115.58069 202.425865 
L 115.813918 192.023131 
L 116.047147 191.342717 
L 116.513605 197.409852 
L 116.746834 194.032665 
L 116.980063 194.579951 
L 117.213292 190.344275 
L 117.44652 189.784368 
L 117.679749 196.47258 
L 117.912978 195.555607 
L 118.146207 193.73141 
L 118.379436 193.144418 
L 118.612665 190.188785 
L 119.079122 193.640207 
L 119.312351 192.819948 
L 119.54558 187.396203 
L 119.778809 197.222298 
L 120.012038 190.416266 
L 120.245266 201.296924 
L 120.478495 202.456364 
L 120.711724 197.960669 
L 120.944953 195.820097 
L 121.411411 206.021843 
L 121.644639 198.628183 
L 121.877868 200.773806 
L 122.111097 195.149108 
L 122.344326 203.65235 
L 122.577555 208.053546 
L 122.810784 205.922647 
L 123.044013 192.107573 
L 123.277241 191.406098 
L 123.51047 193.919793 
L 124.443386 195.886181 
L 124.676614 193.220146 
L 125.143072 183.912292 
L 125.376301 191.371455 
L 125.60953 190.982848 
L 125.842759 193.23875 
L 126.075987 194.186002 
L 126.309216 189.759648 
L 126.542445 195.036729 
L 126.775674 191.893055 
L 127.008903 184.405691 
L 127.242132 185.222696 
L 127.708589 199.125715 
L 128.175047 186.057567 
L 128.408276 185.420757 
L 128.874734 193.835442 
L 129.107962 198.601021 
L 129.341191 187.754075 
L 129.57442 194.304112 
L 129.807649 193.387673 
L 130.040878 193.575757 
L 130.274107 186.069104 
L 130.507335 184.234384 
L 130.973793 192.552131 
L 131.207022 185.830159 
L 131.440251 189.578504 
L 131.67348 187.829171 
L 131.906708 191.506235 
L 132.139937 192.42935 
L 132.373166 192.590005 
L 132.839624 188.351569 
L 133.072853 185.037266 
L 133.306082 196.653406 
L 133.53931 182.384364 
L 133.772539 179.390701 
L 134.005768 186.758381 
L 134.238997 180.498177 
L 134.705455 188.539219 
L 134.938683 194.860222 
L 135.171912 191.915094 
L 135.405141 193.660566 
L 135.63837 190.27147 
L 135.871599 183.371177 
L 136.104828 189.690605 
L 136.338056 188.485345 
L 136.571285 185.818959 
L 136.804514 190.983181 
L 137.037743 189.469521 
L 137.504201 192.685249 
L 137.737429 197.66856 
L 137.970658 187.673335 
L 138.203887 188.405801 
L 138.437116 192.067727 
L 138.670345 187.408963 
L 138.903574 189.476855 
L 139.136803 188.077523 
L 139.370031 189.145133 
L 139.60326 183.7251 
L 139.836489 182.43974 
L 140.069718 189.768606 
L 140.302947 176.766575 
L 140.536176 181.789249 
L 140.769404 179.150756 
L 141.002633 182.578241 
L 141.235862 183.077628 
L 141.469091 180.167795 
L 141.70232 191.572089 
L 141.935549 188.413546 
L 142.168777 196.47258 
L 142.635235 184.968742 
L 142.868464 189.827095 
L 143.101693 185.628698 
L 143.334922 183.561393 
L 143.56815 196.923875 
L 143.801379 185.350499 
L 144.034608 188.822008 
L 144.267837 186.083389 
L 144.501066 197.041262 
L 144.734295 195.83642 
L 145.200752 185.633491 
L 145.433981 207.390478 
L 145.66721 206.704011 
L 146.133668 193.115337 
L 146.366897 202.029381 
L 146.600125 191.624827 
L 146.833354 196.962132 
L 147.066583 192.32684 
L 147.299812 193.906817 
L 147.533041 191.304369 
L 147.76627 192.710398 
L 147.999498 197.580974 
L 148.232727 192.163993 
L 148.465956 183.907935 
L 148.699185 197.701589 
L 148.932414 180.539214 
L 149.6321 199.538199 
L 149.865329 192.922838 
L 150.098558 195.810553 
L 150.331787 193.777691 
L 150.565016 190.240043 
L 150.798245 183.476469 
L 151.031473 183.225162 
L 151.264702 196.484711 
L 151.497931 199.626881 
L 151.73116 193.866027 
L 151.964389 195.265081 
L 152.197618 198.552481 
L 152.430846 180.49462 
L 152.664075 192.006371 
L 152.897304 193.2895 
L 153.130533 193.545239 
L 153.363762 189.733284 
L 153.596991 199.097437 
L 153.830219 200.397342 
L 154.063448 202.817502 
L 154.296677 196.117824 
L 154.529906 212.255908 
L 154.763135 211.087312 
L 155.229592 197.901884 
L 155.462821 191.192724 
L 155.69605 191.387203 
L 155.929279 194.754775 
L 156.162508 192.986973 
L 156.395737 192.515017 
L 156.628966 193.547225 
L 156.862194 189.527499 
L 157.095423 197.706264 
L 157.328652 193.521507 
L 157.561881 197.343126 
L 157.79511 188.323053 
L 158.028339 185.997704 
L 158.261567 185.22585 
L 158.494796 179.887178 
L 158.728025 199.836405 
L 158.961254 194.618455 
L 159.194483 186.703862 
L 159.427712 191.407023 
L 159.66094 182.134331 
L 160.127398 186.080215 
L 160.360627 185.950125 
L 160.593856 179.123146 
L 160.827085 188.997213 
L 161.060313 187.176798 
L 161.293542 171.048749 
L 161.526771 191.534273 
L 161.76 184.685995 
L 161.993229 184.689136 
L 162.226458 182.829282 
L 162.926144 195.172383 
L 163.159373 189.164623 
L 163.392602 196.628625 
L 163.85906 194.752615 
L 164.092288 199.195715 
L 164.325517 190.568571 
L 164.558746 188.661742 
L 164.791975 194.561159 
L 165.025204 192.649996 
L 165.258433 195.40267 
L 165.491661 190.961398 
L 165.72489 195.074605 
L 165.958119 189.846885 
L 166.191348 187.137221 
L 166.424577 189.778179 
L 166.657806 189.54066 
L 166.891034 193.138168 
L 167.124263 181.220725 
L 167.590721 191.083676 
L 167.82395 191.097126 
L 168.057179 195.791588 
L 168.290408 196.033167 
L 168.523636 188.931589 
L 168.756865 187.805728 
L 168.990094 182.20335 
L 169.456552 196.943002 
L 169.689781 185.818959 
L 169.923009 186.505506 
L 170.156238 193.357198 
L 170.389467 189.481446 
L 170.622696 195.681877 
L 170.855925 196.005536 
L 171.089154 192.066715 
L 171.322382 191.299368 
L 171.555611 192.286529 
L 171.78884 197.201596 
L 172.022069 189.34501 
L 172.255298 186.717959 
L 172.488527 193.974828 
L 172.721755 185.233057 
L 172.954984 195.497107 
L 173.188213 191.775306 
L 173.421442 184.983196 
L 173.654671 196.473884 
L 173.8879 194.837742 
L 174.121129 191.833872 
L 174.354357 196.000356 
L 174.587586 202.47813 
L 175.054044 198.286983 
L 175.287273 192.680077 
L 175.520502 190.193978 
L 175.75373 194.594171 
L 175.986959 192.533622 
L 176.220188 193.548937 
L 176.453417 191.987938 
L 176.686646 189.169366 
L 176.919875 184.929147 
L 177.153103 186.181852 
L 177.386332 189.154877 
L 177.619561 178.116464 
L 177.85279 187.754075 
L 178.086019 177.083366 
L 178.319248 178.233016 
L 178.552476 177.516848 
L 178.785705 185.72939 
L 179.018934 181.452017 
L 179.252163 180.608486 
L 179.485392 188.175581 
L 179.718621 184.343915 
L 179.95185 183.447722 
L 180.185078 184.224654 
L 180.418307 181.490758 
L 180.651536 182.901998 
L 180.884765 179.75865 
L 181.117994 185.655513 
L 181.351223 172.238086 
L 181.584451 182.142296 
L 181.81768 174.56501 
L 182.050909 173.627445 
L 182.284138 185.331858 
L 182.517367 178.334964 
L 182.750596 185.481384 
L 182.983824 184.070872 
L 183.217053 183.438743 
L 183.450282 180.466782 
L 183.683511 179.277418 
L 183.91674 180.259227 
L 184.149969 180.745458 
L 184.616426 182.497472 
L 184.849655 179.849045 
L 185.082884 189.73886 
L 185.316113 193.592714 
L 185.549342 192.578323 
L 185.782571 185.858964 
L 186.015799 189.781072 
L 186.482257 180.13841 
L 186.715486 193.377229 
L 186.948715 191.18273 
L 187.181944 193.704688 
L 187.415172 176.258757 
L 187.648401 188.423782 
L 187.88163 188.747826 
L 188.114859 186.80396 
L 188.348088 179.449365 
L 188.581317 190.544266 
L 188.814545 182.243325 
L 189.047774 181.593788 
L 189.281003 177.674199 
L 189.514232 184.206209 
L 189.747461 171.865414 
L 190.213918 184.830644 
L 190.447147 184.579949 
L 190.680376 190.784093 
L 190.913605 180.372457 
L 191.146834 192.303656 
L 191.380063 188.019534 
L 191.613292 189.143119 
L 191.84652 185.579179 
L 192.079749 195.116835 
L 192.312978 188.377532 
L 192.546207 188.116969 
L 192.779436 192.328435 
L 193.012665 180.231096 
L 193.245893 182.862301 
L 193.479122 189.872067 
L 193.712351 189.552592 
L 193.94558 184.690958 
L 194.178809 191.362729 
L 194.412038 187.800807 
L 194.645266 186.53124 
L 194.878495 191.874452 
L 195.111724 184.381946 
L 195.344953 185.736229 
L 195.578182 182.347732 
L 195.811411 191.671624 
L 196.044639 191.99129 
L 196.277868 192.58074 
L 196.511097 188.21304 
L 196.744326 197.029977 
L 197.210784 188.826918 
L 197.444013 178.353313 
L 197.677241 182.542739 
L 197.91047 189.721752 
L 198.143699 179.572274 
L 198.610157 182.025723 
L 198.843386 185.248988 
L 199.076614 181.734926 
L 199.309843 175.909562 
L 199.543072 183.825944 
L 199.776301 183.923224 
L 200.00953 188.68953 
L 200.242759 185.813826 
L 200.475987 185.585915 
L 200.709216 181.751336 
L 200.942445 184.462696 
L 201.175674 193.512981 
L 201.408903 190.627598 
L 201.642132 185.147113 
L 201.875361 188.348469 
L 202.575047 176.562891 
L 202.808276 180.838643 
L 203.041505 176.743336 
L 203.274734 178.155348 
L 203.507962 183.413489 
L 203.97442 200.158433 
L 204.440878 183.823811 
L 204.674107 182.262019 
L 204.907335 186.817865 
L 205.140564 196.929091 
L 205.373793 188.844719 
L 205.607022 197.839978 
L 205.840251 188.395915 
L 206.07348 189.413061 
L 206.306708 187.97123 
L 206.773166 195.469587 
L 207.006395 193.270889 
L 207.239624 188.995801 
L 207.472853 190.771976 
L 207.93931 182.831874 
L 208.172539 185.672359 
L 208.405768 192.143347 
L 208.872226 179.677607 
L 209.105455 179.389071 
L 209.338683 186.330096 
L 209.805141 180.959736 
L 210.03837 180.139912 
L 210.271599 181.849997 
L 210.504828 185.493615 
L 210.738056 191.081204 
L 210.971285 192.387987 
L 211.204514 187.223133 
L 211.437743 187.659816 
L 211.904201 173.521934 
L 212.137429 184.591783 
L 212.370658 175.663697 
L 212.837116 180.139943 
L 213.070345 182.99562 
L 213.303574 182.080715 
L 213.536803 180.490008 
L 213.770031 185.254894 
L 214.00326 185.468945 
L 214.236489 190.332689 
L 214.469718 173.303177 
L 214.702947 189.066528 
L 214.936176 185.120225 
L 215.169404 186.858633 
L 215.402633 184.365946 
L 215.635862 189.341741 
L 215.869091 188.766384 
L 216.10232 186.203504 
L 216.335549 188.171002 
L 216.568777 192.810149 
L 216.802006 190.242631 
L 217.035235 190.068791 
L 217.268464 184.603729 
L 217.501693 187.506339 
L 217.734922 194.573117 
L 217.96815 192.7323 
L 218.201379 193.876223 
L 218.434608 188.49223 
L 218.667837 190.912396 
L 218.901066 198.065184 
L 219.134295 193.852483 
L 219.367524 200.28484 
L 219.600752 195.47902 
L 219.833981 195.464427 
L 220.06721 191.524601 
L 220.300439 193.132704 
L 220.533668 184.527443 
L 220.766897 181.717534 
L 221.000125 191.686471 
L 221.233354 186.629868 
L 221.466583 188.004358 
L 221.933041 195.688187 
L 222.16627 192.09522 
L 222.399498 191.459891 
L 222.632727 187.076031 
L 222.865956 194.694465 
L 223.099185 193.104261 
L 223.332414 192.526893 
L 223.565643 189.056212 
L 223.798871 190.07046 
L 224.0321 190.222982 
L 224.265329 188.069467 
L 224.498558 190.099543 
L 224.731787 185.199609 
L 224.965016 189.545595 
L 225.198245 185.335046 
L 225.664702 203.152272 
L 225.897931 192.090189 
L 226.597618 183.236147 
L 226.830846 182.274483 
L 227.064075 187.965676 
L 227.297304 186.618129 
L 227.530533 192.675024 
L 227.763762 185.099315 
L 227.996991 181.918162 
L 228.230219 194.84331 
L 228.463448 188.050249 
L 228.696677 192.848614 
L 228.929906 192.42935 
L 229.163135 187.882717 
L 229.629592 183.9201 
L 229.862821 180.054103 
L 230.329279 191.107802 
L 230.562508 191.425194 
L 230.795737 189.028348 
L 231.028966 190.17556 
L 231.262194 188.097438 
L 231.495423 188.681356 
L 231.728652 190.277022 
L 231.961881 193.443562 
L 232.19511 185.229147 
L 232.428339 188.899386 
L 232.661567 185.360555 
L 232.894796 188.652325 
L 233.128025 181.573638 
L 233.361254 194.142159 
L 233.594483 199.371636 
L 234.06094 186.6938 
L 234.294169 194.258048 
L 234.527398 188.087673 
L 234.760627 187.717146 
L 234.993856 189.767888 
L 235.227085 188.21304 
L 235.693542 189.798787 
L 236.16 181.689885 
L 236.393229 187.762111 
L 236.626458 185.221119 
L 236.859687 195.607246 
L 237.092915 194.17716 
L 237.326144 193.487612 
L 237.559373 191.691939 
L 237.792602 186.957088 
L 238.025831 188.125108 
L 238.25906 186.258102 
L 238.492288 182.327468 
L 238.725517 189.830623 
L 238.958746 183.691773 
L 239.191975 182.140446 
L 239.425204 186.650324 
L 239.658433 182.216199 
L 239.891661 181.641412 
L 240.12489 183.617036 
L 240.358119 180.779136 
L 240.591348 185.307885 
L 240.824577 179.159135 
L 241.057806 185.260141 
L 241.291034 184.909338 
L 241.524263 185.019408 
L 241.757492 178.37815 
L 241.990721 175.069563 
L 242.22395 185.601346 
L 242.457179 177.561348 
L 242.690408 180.708496 
L 242.923636 189.366385 
L 243.390094 184.657724 
L 243.623323 184.692545 
L 243.856552 188.984105 
L 244.089781 183.13994 
L 244.323009 186.289893 
L 244.556238 186.34238 
L 244.789467 182.773981 
L 245.022696 189.107784 
L 245.255925 185.558418 
L 245.489154 179.61656 
L 245.722382 187.037274 
L 245.955611 189.660662 
L 246.18884 189.928721 
L 246.422069 179.464774 
L 246.888527 175.424263 
L 247.121755 181.141161 
L 247.354984 181.551941 
L 247.821442 189.953723 
L 248.054671 172.281139 
L 248.2879 176.974695 
L 248.521129 178.033143 
L 248.754357 184.844734 
L 248.987586 182.188817 
L 249.220815 187.211768 
L 249.454044 182.204923 
L 249.687273 181.460542 
L 249.920502 174.789225 
L 250.15373 177.053947 
L 250.386959 184.78656 
L 250.620188 175.867063 
L 250.853417 175.582114 
L 251.086646 177.53127 
L 251.319875 186.524221 
L 251.553103 179.424713 
L 251.786332 187.223085 
L 252.019561 179.475562 
L 252.25279 185.480195 
L 252.486019 181.947689 
L 252.719248 188.22583 
L 252.952476 180.670872 
L 253.185705 183.130624 
L 253.418934 188.768878 
L 253.652163 181.352414 
L 253.885392 181.219179 
L 254.118621 182.737653 
L 254.35185 180.373994 
L 254.585078 190.443032 
L 254.818307 179.848922 
L 255.051536 180.474635 
L 255.284765 179.856773 
L 255.517994 177.782625 
L 255.751223 188.927504 
L 256.21768 181.622617 
L 256.450909 185.810658 
L 256.684138 177.555332 
L 256.917367 178.849776 
L 257.150596 177.562867 
L 257.383824 187.13324 
L 257.617053 185.931098 
L 257.850282 189.320388 
L 258.083511 180.8478 
L 258.31674 194.180773 
L 258.549969 182.683968 
L 258.783197 183.385487 
L 259.016426 183.481964 
L 259.249655 189.535724 
L 259.482884 187.734998 
L 259.716113 183.551874 
L 259.949342 189.874706 
L 260.182571 189.753057 
L 260.415799 192.331828 
L 260.649028 192.675041 
L 261.115486 186.83164 
L 261.348715 185.787028 
L 261.581944 187.067972 
L 261.815172 186.937204 
L 262.048401 183.704369 
L 262.28163 190.920708 
L 262.514859 181.899516 
L 262.981317 188.407788 
L 263.214545 177.420043 
L 263.447774 195.036885 
L 263.681003 179.180447 
L 263.914232 190.859744 
L 264.147461 190.685847 
L 264.38069 188.684626 
L 264.613918 183.137316 
L 264.847147 182.658712 
L 265.080376 177.377981 
L 265.313605 191.850779 
L 265.546834 179.59976 
L 265.780063 192.051626 
L 266.013292 188.193575 
L 266.24652 187.805728 
L 266.479749 194.31424 
L 266.712978 189.869808 
L 266.946207 194.577853 
L 267.179436 187.661979 
L 267.412665 192.253777 
L 267.645893 191.050058 
L 267.879122 187.689314 
L 268.112351 190.295884 
L 268.34558 190.128866 
L 268.578809 195.386972 
L 268.812038 188.321454 
L 269.045266 192.089393 
L 269.278495 183.45552 
L 269.511724 192.513606 
L 269.744953 181.561871 
L 269.978182 182.477046 
L 270.211411 193.811196 
L 270.677868 181.759756 
L 270.911097 185.950416 
L 271.144326 185.816114 
L 271.377555 182.439972 
L 271.610784 188.574679 
L 271.844013 187.318515 
L 272.077241 188.425984 
L 272.31047 188.603791 
L 272.543699 185.504136 
L 272.776928 191.545096 
L 273.010157 193.770074 
L 273.243386 183.679049 
L 273.476614 191.39442 
L 273.709843 179.932527 
L 273.943072 186.983969 
L 274.176301 185.735334 
L 274.40953 185.762794 
L 274.642759 185.288949 
L 274.875987 190.142782 
L 275.109216 190.819866 
L 275.342445 187.249387 
L 275.575674 185.623905 
L 276.042132 189.903724 
L 276.275361 181.425475 
L 276.508589 183.79915 
L 276.741818 178.40108 
L 276.975047 189.102151 
L 277.208276 193.720622 
L 277.441505 192.007981 
L 277.674734 187.250575 
L 277.907962 188.971701 
L 278.141191 182.64664 
L 278.37442 185.510521 
L 278.607649 180.726665 
L 279.074107 177.042778 
L 279.307335 190.4032 
L 279.773793 188.430181 
L 280.007022 189.174369 
L 280.240251 190.552981 
L 280.47348 185.759773 
L 280.706708 188.180252 
L 280.939937 183.082441 
L 281.173166 189.359813 
L 281.406395 182.916388 
L 281.639624 184.844734 
L 282.106082 177.499696 
L 282.33931 184.93984 
L 282.572539 184.541909 
L 282.805768 190.043384 
L 283.038997 188.831359 
L 283.272226 194.910681 
L 283.505455 192.723188 
L 283.971912 181.260922 
L 284.43837 193.905598 
L 284.671599 193.717158 
L 284.904828 189.78272 
L 285.138056 191.16108 
L 285.371285 186.171605 
L 285.604514 184.975402 
L 285.837743 184.956699 
L 286.070972 186.245067 
L 286.304201 194.948806 
L 286.537429 185.053881 
L 287.003887 191.096151 
L 287.237116 184.559343 
L 287.470345 190.296285 
L 287.703574 189.585248 
L 287.936803 186.85817 
L 288.170031 179.286453 
L 288.40326 183.641647 
L 288.636489 181.319694 
L 288.869718 188.719239 
L 289.102947 183.517352 
L 289.569404 191.327808 
L 289.802633 185.906075 
L 290.269091 192.638972 
L 290.50232 183.75223 
L 290.735549 183.745578 
L 291.202006 186.777571 
L 291.435235 194.228785 
L 291.668464 191.969823 
L 291.901693 200.66872 
L 292.134922 192.811211 
L 292.36815 190.700269 
L 292.601379 192.771761 
L 292.834608 184.502344 
L 293.067837 190.412151 
L 293.301066 189.519357 
L 293.767524 198.135617 
L 294.000752 189.526003 
L 294.233981 191.452819 
L 294.46721 183.234686 
L 294.700439 184.50705 
L 294.933668 181.2702 
L 295.166897 192.67334 
L 295.400125 185.523292 
L 295.633354 186.901746 
L 295.866583 186.339135 
L 296.099812 195.305398 
L 296.56627 188.239484 
L 296.799498 190.727756 
L 297.032727 194.891249 
L 297.265956 187.771285 
L 297.499185 196.231935 
L 297.732414 191.713422 
L 297.965643 190.013746 
L 298.198871 187.245724 
L 298.4321 186.623364 
L 298.665329 188.536036 
L 298.898558 188.553916 
L 299.365016 187.100259 
L 299.598245 190.771976 
L 299.831473 187.882717 
L 300.064702 180.670872 
L 300.297931 183.640837 
L 300.53116 183.195848 
L 300.764389 187.936413 
L 300.997618 189.371314 
L 301.230846 181.971251 
L 301.464075 186.721404 
L 301.697304 178.245232 
L 301.930533 188.038861 
L 302.163762 177.301811 
L 302.396991 191.204384 
L 302.630219 192.503341 
L 302.863448 179.659575 
L 303.096677 188.090928 
L 303.329906 180.130865 
L 303.563135 190.434353 
L 303.796364 186.131015 
L 304.029592 190.636204 
L 304.262821 189.578504 
L 304.49605 185.688743 
L 304.962508 188.076282 
L 305.195737 184.519599 
L 305.428966 185.091863 
L 305.662194 192.387328 
L 305.895423 190.185629 
L 306.128652 190.280844 
L 306.59511 177.817727 
L 307.061567 185.224321 
L 307.294796 184.358302 
L 307.528025 186.317478 
L 307.761254 184.369284 
L 307.994483 191.859233 
L 308.227712 185.686889 
L 308.46094 186.795299 
L 308.694169 182.67134 
L 308.927398 187.112024 
L 309.160627 189.338373 
L 309.393856 176.735936 
L 309.627085 180.660767 
L 309.860313 179.267251 
L 310.093542 184.116293 
L 310.326771 181.914315 
L 310.56 177.857973 
L 310.793229 188.723863 
L 311.026458 177.889632 
L 311.259687 186.520602 
L 311.492915 178.785062 
L 311.726144 180.149144 
L 311.959373 180.780662 
L 312.192602 188.451072 
L 312.425831 181.448154 
L 312.65906 177.801603 
L 312.892288 189.998804 
L 313.125517 180.918026 
L 313.358746 188.034029 
L 313.591975 186.234264 
L 313.825204 180.55767 
L 314.058433 188.962246 
L 314.52489 179.582962 
L 314.758119 184.073241 
L 314.991348 181.479632 
L 315.224577 185.025707 
L 315.924263 178.202482 
L 316.157492 178.063135 
L 316.390721 176.924025 
L 316.62395 189.554254 
L 316.857179 191.560279 
L 317.090408 183.077628 
L 317.323636 183.485903 
L 317.556865 186.144148 
L 317.790094 191.139433 
L 318.023323 185.378096 
L 318.256552 185.154899 
L 318.489781 189.980646 
L 318.956238 180.313158 
L 319.189467 184.665576 
L 319.422696 192.970092 
L 319.655925 184.332887 
L 319.889154 184.665576 
L 320.122382 181.792354 
L 320.355611 189.031496 
L 320.58884 186.208318 
L 320.822069 197.091238 
L 321.055298 187.279176 
L 321.288527 190.582823 
L 321.521755 178.881279 
L 321.988213 192.536987 
L 322.221442 185.108864 
L 322.454671 185.183685 
L 322.6879 187.198834 
L 322.921129 186.482993 
L 323.154357 186.832373 
L 323.854044 189.598253 
L 324.087273 188.733675 
L 324.55373 197.238949 
L 324.786959 185.526485 
L 325.020188 184.567268 
L 325.486646 176.985041 
L 325.719875 183.830673 
L 325.953103 186.177833 
L 326.186332 182.75054 
L 326.419561 173.594525 
L 326.65279 182.897602 
L 326.886019 185.035676 
L 327.119248 188.712418 
L 327.352476 188.792557 
L 327.585705 183.295794 
L 327.818934 190.796885 
L 328.052163 185.810959 
L 328.285392 185.451472 
L 328.518621 192.00302 
L 328.985078 184.860823 
L 329.218307 184.291754 
L 329.451536 181.618592 
L 329.684765 177.414033 
L 329.917994 181.339806 
L 330.151223 194.18929 
L 330.384451 179.303817 
L 330.61768 182.606764 
L 330.850909 193.726754 
L 331.084138 192.014751 
L 331.317367 187.757723 
L 331.550596 189.392676 
L 331.783824 195.624464 
L 332.017053 190.62594 
L 332.250282 180.393188 
L 332.483511 183.616464 
L 332.71674 177.367467 
L 332.949969 188.535954 
L 333.183197 191.226041 
L 333.649655 180.770106 
L 333.882884 182.558352 
L 334.116113 191.482863 
L 334.349342 193.194781 
L 334.582571 193.262431 
L 334.815799 192.031511 
L 335.049028 186.624567 
L 335.282257 193.323345 
L 335.748715 191.16108 
L 335.981944 192.437756 
L 336.215172 188.872745 
L 336.448401 195.722645 
L 336.68163 186.028719 
L 336.914859 188.885841 
L 337.148088 175.954211 
L 337.614545 189.097199 
L 337.847774 190.475092 
L 338.081003 187.360591 
L 338.314232 189.384459 
L 338.547461 183.583418 
L 338.78069 184.510218 
L 339.013918 189.977345 
L 339.247147 181.383134 
L 339.480376 189.655872 
L 339.713605 182.104762 
L 339.946834 181.409448 
L 340.64652 196.784853 
L 341.112978 189.376243 
L 341.346207 188.491874 
L 341.579436 183.832249 
L 341.812665 190.154073 
L 342.045893 175.089165 
L 342.512351 183.952105 
L 342.74558 182.739595 
L 342.978809 186.306236 
L 343.212038 183.734551 
L 343.445266 182.811536 
L 343.678495 186.32872 
L 343.911724 185.320699 
L 344.144953 190.60438 
L 344.378182 180.68232 
L 344.611411 177.217366 
L 344.844639 184.331305 
L 345.077868 184.778245 
L 345.311097 188.961171 
L 345.544326 190.574533 
L 345.777555 187.247341 
L 346.010784 190.033476 
L 346.244013 188.141388 
L 346.477241 190.914849 
L 346.71047 186.446016 
L 346.943699 187.543611 
L 347.176928 186.067184 
L 347.410157 185.612722 
L 347.643386 186.942045 
L 347.876614 183.596006 
L 348.343072 185.274481 
L 348.576301 183.991555 
L 348.80953 188.890753 
L 349.042759 175.896268 
L 349.275987 178.397197 
L 349.742445 188.807282 
L 349.975674 186.322296 
L 350.208903 199.180522 
L 350.442132 182.153009 
L 350.675361 186.481385 
L 350.908589 184.711584 
L 351.141818 186.735679 
L 351.375047 195.247909 
L 351.608276 191.46784 
L 351.841505 192.759263 
L 352.074734 197.38019 
L 352.307962 185.148657 
L 352.541191 189.108677 
L 352.77442 186.708295 
L 353.007649 181.236184 
L 353.240878 186.50229 
L 353.474107 188.774563 
L 353.707335 184.908487 
L 353.940564 189.307248 
L 354.173793 183.509489 
L 354.407022 188.633961 
L 354.640251 188.05513 
L 355.106708 194.720116 
L 355.339937 197.922125 
L 356.039624 179.3282 
L 356.272853 181.177449 
L 356.506082 186.089627 
L 356.73931 182.263577 
L 357.205768 192.216015 
L 357.438997 190.337654 
L 357.672226 196.045258 
L 357.905455 190.516517 
L 358.138683 181.731822 
L 358.371912 186.729235 
L 358.605141 180.055635 
L 358.83837 181.966342 
L 359.071599 188.86456 
L 359.538056 182.132774 
L 360.004514 193.440174 
L 360.237743 191.276032 
L 360.470972 185.847761 
L 360.704201 192.254625 
L 360.937429 181.665114 
L 361.170658 177.062937 
L 361.637116 188.454336 
L 361.870345 181.02918 
L 362.103574 188.222814 
L 362.336803 186.743734 
L 362.570031 183.81491 
L 362.80326 186.267702 
L 363.036489 183.840131 
L 363.269718 185.277668 
L 363.502947 190.344275 
L 363.736176 182.093869 
L 363.969404 195.234174 
L 364.202633 189.305606 
L 364.435862 190.455213 
L 364.669091 184.756021 
L 364.90232 193.575757 
L 365.135549 188.025847 
L 365.368777 187.289394 
L 365.602006 180.710036 
L 365.835235 180.173681 
L 366.068464 188.138132 
L 366.301693 188.042114 
L 366.534922 182.950835 
L 366.76815 185.700613 
L 367.001379 181.094027 
L 367.234608 179.296198 
L 367.701066 188.068146 
L 367.934295 182.251114 
L 368.167524 185.691022 
L 368.633981 186.801746 
L 368.86721 186.124902 
L 369.100439 179.877995 
L 369.333668 179.087613 
L 370.033354 188.858013 
L 370.266583 194.93578 
L 370.499812 191.382744 
L 370.733041 183.862203 
L 370.96627 184.367701 
L 371.199498 186.230784 
L 371.432727 182.886645 
L 371.665956 193.374128 
L 371.899185 176.923655 
L 372.132414 190.478406 
L 372.365643 195.938209 
L 372.598871 187.153578 
L 372.8321 188.103948 
L 373.298558 179.659333 
L 373.531787 186.556979 
L 373.765016 188.284731 
L 373.998245 181.977223 
L 374.231473 182.57709 
L 374.464702 181.330523 
L 374.697931 188.138132 
L 374.93116 191.376072 
L 375.164389 198.169347 
L 375.397618 189.210387 
L 375.630846 186.882359 
L 375.864075 195.206708 
L 376.097304 181.384682 
L 376.330533 178.803428 
L 376.563762 184.132091 
L 376.796991 178.141663 
L 377.030219 191.981236 
L 377.496677 175.841319 
L 377.729906 180.018863 
L 377.963135 178.52742 
L 378.196364 183.085576 
L 378.429592 181.651156 
L 378.662821 178.232329 
L 378.89605 184.383529 
L 379.362508 184.207947 
L 379.595737 187.863284 
L 379.828966 187.736621 
L 380.062194 181.134187 
L 380.295423 186.182646 
L 380.761881 183.109092 
L 380.99511 197.535553 
L 381.461567 190.266507 
L 381.694796 191.608117 
L 381.928025 187.168123 
L 382.161254 189.539015 
L 382.394483 189.446917 
L 382.627712 181.477578 
L 382.86094 180.074025 
L 383.094169 185.376501 
L 383.327398 182.805278 
L 383.560627 181.953906 
L 383.793856 184.803648 
L 384.027085 184.592631 
L 384.493542 175.312296 
L 384.726771 179.922383 
L 384.96 180.021927 
L 385.426458 173.477774 
L 385.892915 184.008916 
L 386.126144 185.617515 
L 386.359373 175.398101 
L 386.592602 192.905965 
L 387.292288 181.41761 
L 387.525517 189.706926 
L 387.758746 190.222982 
L 387.991975 184.309547 
L 388.225204 188.798032 
L 388.458433 186.325508 
L 388.691661 189.539015 
L 388.92489 194.614884 
L 389.624577 183.002522 
L 389.857806 190.898228 
L 390.091034 190.352386 
L 390.324263 188.702608 
L 391.02395 179.045309 
L 391.257179 179.856572 
L 391.490408 175.632247 
L 391.723636 176.00326 
L 391.956865 177.437805 
L 392.190094 190.106789 
L 392.423323 187.405918 
L 392.656552 193.969726 
L 393.123009 182.630195 
L 393.356238 183.761778 
L 393.589467 177.441382 
L 393.822696 177.762037 
L 394.055925 182.725524 
L 394.289154 174.408465 
L 394.522382 177.940905 
L 394.755611 178.28854 
L 394.98884 194.540646 
L 395.222069 184.431776 
L 395.455298 180.335963 
L 395.688527 179.156091 
L 395.921755 176.764612 
L 396.154984 176.720234 
L 396.388213 181.550391 
L 396.621442 192.649524 
L 397.321129 180.930243 
L 397.554357 170.634514 
L 397.787586 179.598233 
L 398.020815 179.647111 
L 398.254044 172.252242 
L 398.487273 172.969724 
L 398.487273 172.969724 
" style="fill:none;stroke:#0000ff;stroke-linecap:square;stroke-width:1.5;"/>
   </g>
   <g id="line2d_20">
    <path clip-path="url(#pdc4556af18)" d="M 73.832727 265.485828 
L 74.765643 198.76094 
L 74.998871 197.469328 
L 75.2321 181.73453 
L 75.465329 183.199048 
L 76.165016 166.661197 
L 76.398245 173.635509 
L 76.631473 169.746796 
L 76.864702 168.756243 
L 77.33116 173.475375 
L 77.564389 167.123722 
L 78.030846 174.546838 
L 78.264075 163.41559 
L 78.497304 165.037598 
L 78.730533 168.735619 
L 78.963762 169.933095 
L 79.196991 168.387357 
L 79.430219 164.731476 
L 79.663448 169.958522 
L 80.363135 164.079202 
L 80.596364 160.931938 
L 81.062821 164.857543 
L 81.29605 161.776113 
L 81.529279 161.755802 
L 81.762508 158.480344 
L 81.995737 166.528775 
L 82.228966 159.807475 
L 82.462194 165.931546 
L 82.695423 164.509264 
L 82.928652 154.498852 
L 83.161881 154.303235 
L 83.861567 163.808849 
L 84.094796 163.301456 
L 84.328025 162.265295 
L 84.561254 160.687628 
L 84.794483 160.892358 
L 85.26094 160.051367 
L 85.494169 166.057857 
L 85.727398 165.058776 
L 85.960627 159.650784 
L 86.193856 164.493533 
L 86.427085 154.357803 
L 86.660313 163.460831 
L 86.893542 157.135063 
L 87.36 152.915326 
L 87.593229 162.632296 
L 87.826458 158.270309 
L 88.059687 158.267738 
L 88.292915 155.643331 
L 88.526144 157.739379 
L 88.759373 163.151726 
L 88.992602 163.775408 
L 89.225831 160.608057 
L 89.45906 162.076423 
L 89.692288 159.651114 
L 89.925517 158.560768 
L 90.158746 151.341609 
L 90.391975 158.522689 
L 90.625204 152.086624 
L 90.858433 157.070183 
L 91.091661 158.708038 
L 91.32489 158.284592 
L 91.558119 154.064924 
L 92.024577 152.479486 
L 92.257806 158.894966 
L 92.724263 152.964274 
L 92.957492 153.039047 
L 93.190721 152.887675 
L 93.42395 152.429171 
L 93.657179 159.33007 
L 93.890408 157.533328 
L 94.123636 158.974508 
L 94.356865 154.304041 
L 94.590094 154.150523 
L 94.823323 156.223689 
L 95.056552 155.908511 
L 95.289781 158.561185 
L 95.523009 162.753933 
L 95.756238 157.346992 
L 96.222696 162.480869 
L 96.689154 151.873986 
L 96.922382 151.385183 
L 97.38884 159.260396 
L 97.622069 160.27239 
L 97.855298 154.529288 
L 98.088527 155.004666 
L 98.321755 157.902797 
L 98.554984 156.380578 
L 99.021442 163.679638 
L 99.4879 160.080499 
L 99.721129 162.153041 
L 99.954357 168.884861 
L 100.420815 157.065849 
L 100.654044 158.898459 
L 100.887273 162.13672 
L 101.120502 152.054735 
L 101.35373 159.310833 
L 101.586959 160.660927 
L 101.820188 155.17354 
L 102.286646 162.148471 
L 102.519875 157.067016 
L 102.986332 164.710375 
L 103.219561 156.962983 
L 103.45279 164.879132 
L 103.686019 161.396519 
L 103.919248 162.182733 
L 104.152476 159.693028 
L 104.385705 160.506358 
L 104.618934 158.71269 
L 104.852163 162.214852 
L 105.085392 162.841396 
L 105.318621 155.386788 
L 105.55185 158.671966 
L 105.785078 154.869561 
L 106.018307 154.45312 
L 106.251536 147.80759 
L 106.484765 153.994426 
L 106.951223 150.56396 
L 107.41768 164.005278 
L 107.650909 161.72798 
L 107.884138 156.774646 
L 108.117367 161.627768 
L 108.583824 149.951562 
L 108.817053 151.695207 
L 109.050282 157.780139 
L 109.283511 153.812996 
L 109.51674 152.670081 
L 109.749969 154.29676 
L 109.983197 152.376465 
L 110.216426 153.742002 
L 110.449655 153.574292 
L 110.682884 151.901013 
L 110.916113 153.548814 
L 111.149342 153.814325 
L 111.382571 149.463111 
L 111.615799 155.013595 
L 111.849028 148.314566 
L 112.548715 155.456837 
L 112.781944 154.776591 
L 113.015172 152.702577 
L 113.248401 157.117705 
L 113.714859 150.510343 
L 113.948088 143.742365 
L 114.181317 154.711916 
L 114.414545 157.169368 
L 114.647774 154.186735 
L 114.881003 160.950756 
L 115.114232 152.528347 
L 115.58069 158.490203 
L 115.813918 149.337665 
L 116.047147 149.223447 
L 116.280376 153.545996 
L 116.513605 155.645248 
L 116.980063 150.509338 
L 117.213292 147.75906 
L 117.44652 146.608774 
L 117.679749 153.779614 
L 117.912978 153.595061 
L 118.146207 147.528489 
L 118.379436 151.909477 
L 118.612665 147.80664 
L 118.845893 146.957128 
L 119.079122 152.578159 
L 119.54558 145.871271 
L 119.778809 153.51933 
L 120.012038 151.581293 
L 120.245266 160.845543 
L 120.478495 160.691075 
L 120.711724 155.510309 
L 120.944953 154.755857 
L 121.411411 160.410784 
L 121.644639 156.302462 
L 121.877868 159.137618 
L 122.111097 153.804692 
L 122.577555 161.644353 
L 122.810784 162.163037 
L 123.044013 150.233818 
L 123.277241 149.031155 
L 123.51047 151.080613 
L 123.743699 149.691894 
L 124.210157 152.938307 
L 124.443386 152.432066 
L 125.143072 144.16908 
L 125.376301 147.929241 
L 125.60953 148.743621 
L 125.842759 148.981568 
L 126.075987 148.293119 
L 126.309216 147.982277 
L 126.542445 149.356377 
L 127.008903 142.356927 
L 127.242132 144.007461 
L 127.475361 147.293001 
L 127.708589 152.557745 
L 127.941818 145.118151 
L 128.408276 146.146582 
L 128.641505 149.856853 
L 128.874734 150.882522 
L 129.341191 147.377503 
L 129.57442 151.268042 
L 129.807649 151.399651 
L 130.040878 151.66691 
L 130.274107 143.511773 
L 130.507335 143.581744 
L 130.973793 146.864494 
L 131.207022 142.155822 
L 131.440251 148.271176 
L 131.67348 146.457825 
L 131.906708 148.542824 
L 132.139937 149.097534 
L 132.373166 147.024118 
L 132.606395 150.926843 
L 132.839624 144.469228 
L 133.306082 152.196177 
L 133.53931 143.641026 
L 133.772539 142.201841 
L 134.005768 147.961175 
L 134.238997 140.375136 
L 134.472226 141.656498 
L 134.938683 147.358418 
L 135.171912 149.586898 
L 135.405141 149.314623 
L 135.63837 146.506695 
L 135.871599 145.321619 
L 136.104828 146.770829 
L 136.338056 145.82536 
L 136.571285 143.541256 
L 136.804514 150.287211 
L 137.037743 147.11193 
L 137.270972 147.196049 
L 137.504201 149.808767 
L 137.737429 151.162968 
L 138.203887 145.122509 
L 138.437116 146.596785 
L 138.670345 143.509577 
L 138.903574 146.70448 
L 139.136803 146.013778 
L 139.370031 147.252638 
L 139.836489 142.231611 
L 140.069718 146.280984 
L 140.302947 137.631164 
L 140.536176 140.97427 
L 140.769404 138.79108 
L 141.002633 141.883687 
L 141.235862 141.216901 
L 141.469091 141.765537 
L 141.70232 149.187447 
L 141.935549 146.846968 
L 142.168777 151.842683 
L 142.402006 150.278849 
L 142.635235 146.784853 
L 142.868464 148.163265 
L 143.101693 146.599172 
L 143.334922 143.837872 
L 143.56815 148.862662 
L 143.801379 142.289863 
L 144.267837 146.993619 
L 144.501066 151.462822 
L 144.734295 151.928882 
L 144.967524 149.424033 
L 145.200752 144.545095 
L 145.433981 159.164135 
L 145.66721 161.975488 
L 146.133668 152.33234 
L 146.366897 157.481911 
L 146.600125 154.779124 
L 146.833354 155.957954 
L 147.066583 153.47943 
L 147.299812 154.608802 
L 147.533041 151.002853 
L 147.999498 155.159352 
L 148.232727 152.151445 
L 148.465956 144.968366 
L 148.699185 153.16912 
L 148.932414 143.441282 
L 149.165643 145.97068 
L 149.6321 156.274616 
L 149.865329 152.696593 
L 150.098558 153.590713 
L 150.331787 155.557644 
L 151.031473 145.691693 
L 151.264702 156.404172 
L 151.497931 154.076727 
L 151.73116 154.568676 
L 151.964389 154.221988 
L 152.197618 154.802289 
L 152.430846 145.597945 
L 152.664075 152.941026 
L 152.897304 154.323346 
L 153.363762 151.455159 
L 153.830219 159.326894 
L 154.063448 160.006191 
L 154.296677 152.693905 
L 154.529906 163.234885 
L 154.763135 163.817028 
L 154.996364 155.207249 
L 155.229592 154.165973 
L 155.462821 147.438149 
L 155.69605 145.559723 
L 155.929279 148.036857 
L 156.162508 149.078532 
L 156.628966 145.324686 
L 156.862194 146.365323 
L 157.095423 151.034937 
L 157.328652 147.694013 
L 157.561881 151.240731 
L 157.79511 143.161727 
L 158.028339 142.964616 
L 158.261567 143.546082 
L 158.494796 139.392348 
L 158.728025 153.078237 
L 158.961254 151.467724 
L 159.194483 143.374425 
L 159.427712 144.93164 
L 159.66094 136.309577 
L 159.894169 140.165626 
L 160.127398 140.777254 
L 160.360627 140.200636 
L 160.593856 136.932812 
L 160.827085 142.775281 
L 161.060313 141.349854 
L 161.293542 132.591848 
L 161.526771 146.263007 
L 161.76 140.025909 
L 161.993229 138.422335 
L 162.226458 141.07895 
L 162.459687 142.158238 
L 162.926144 147.484361 
L 163.159373 145.91788 
L 163.625831 151.225 
L 163.85906 148.058075 
L 164.092288 149.829709 
L 164.325517 144.328112 
L 164.791975 148.367084 
L 165.025204 146.595495 
L 165.258433 147.89246 
L 165.491661 143.844157 
L 165.72489 150.269439 
L 165.958119 142.042208 
L 166.191348 142.764249 
L 166.424577 144.697826 
L 166.657806 144.573066 
L 166.891034 146.35068 
L 167.124263 140.21352 
L 167.357492 140.537148 
L 168.290408 148.358223 
L 168.523636 144.047521 
L 168.756865 142.916068 
L 168.990094 138.685932 
L 169.456552 150.546249 
L 169.689781 142.297638 
L 170.156238 147.842116 
L 170.389467 143.924153 
L 170.622696 153.390712 
L 170.855925 149.958249 
L 171.089154 148.455039 
L 171.322382 149.465043 
L 171.555611 151.954538 
L 171.78884 152.543551 
L 172.255298 141.127643 
L 172.488527 150.671606 
L 172.721755 143.721403 
L 172.954984 151.082359 
L 173.188213 151.854059 
L 173.421442 144.303894 
L 173.654671 152.768586 
L 173.8879 148.928863 
L 174.121129 150.285809 
L 174.354357 152.45437 
L 174.587586 158.085473 
L 174.820815 155.731831 
L 175.054044 150.912 
L 175.287273 148.692924 
L 175.520502 147.867608 
L 175.75373 151.213336 
L 175.986959 149.600494 
L 176.220188 150.14318 
L 176.453417 148.429349 
L 176.686646 148.272631 
L 176.919875 141.776034 
L 177.153103 141.885607 
L 177.386332 147.410568 
L 177.619561 135.473713 
L 177.85279 144.30737 
L 178.086019 133.211831 
L 178.319248 134.470119 
L 178.785705 141.912585 
L 179.018934 139.806572 
L 179.252163 142.160305 
L 179.485392 146.085403 
L 179.718621 140.616752 
L 179.95185 139.728173 
L 180.185078 142.699623 
L 180.418307 141.868708 
L 180.884765 137.259233 
L 181.117994 141.809926 
L 181.351223 133.736239 
L 181.584451 140.931921 
L 181.81768 133.536117 
L 182.050909 132.118033 
L 182.284138 142.985325 
L 182.517367 138.436494 
L 182.750596 143.074914 
L 182.983824 141.039768 
L 183.217053 142.879909 
L 183.683511 135.962356 
L 184.149969 140.746451 
L 184.383197 137.114082 
L 184.616426 143.007914 
L 184.849655 141.039472 
L 185.082884 145.311354 
L 185.316113 146.982102 
L 185.549342 145.063397 
L 185.782571 142.153951 
L 186.015799 145.672874 
L 186.249028 138.753667 
L 186.482257 137.426313 
L 186.715486 146.721055 
L 186.948715 144.805424 
L 187.181944 148.820506 
L 187.415172 140.204164 
L 187.648401 141.733596 
L 187.88163 146.093837 
L 188.114859 138.215716 
L 188.348088 139.330708 
L 188.581317 146.295228 
L 188.814545 138.866337 
L 189.047774 142.929877 
L 189.281003 136.030218 
L 189.514232 139.060419 
L 189.747461 133.484317 
L 189.98069 141.192887 
L 190.447147 143.658469 
L 190.680376 147.180886 
L 190.913605 138.682031 
L 191.146834 147.83537 
L 191.380063 141.778525 
L 191.613292 145.916258 
L 191.84652 143.527852 
L 192.079749 148.443313 
L 192.312978 142.56476 
L 192.779436 145.156492 
L 193.245893 138.110516 
L 193.479122 146.88873 
L 193.712351 146.642382 
L 193.94558 142.409756 
L 194.178809 145.95147 
L 194.412038 146.90727 
L 194.645266 144.591848 
L 194.878495 150.231917 
L 195.111724 143.401427 
L 195.344953 143.126911 
L 195.578182 141.413407 
L 195.811411 150.959047 
L 196.044639 148.166064 
L 196.277868 150.922276 
L 196.511097 148.149624 
L 196.744326 154.504525 
L 197.210784 148.998136 
L 197.444013 141.292292 
L 197.677241 143.532057 
L 197.91047 147.953063 
L 198.143699 142.907805 
L 198.376928 141.309537 
L 198.610157 143.080751 
L 198.843386 142.389324 
L 199.076614 142.739798 
L 199.309843 137.562665 
L 199.543072 141.312632 
L 199.776301 142.223972 
L 200.00953 146.109686 
L 200.242759 145.774299 
L 200.475987 139.53797 
L 200.709216 139.40935 
L 200.942445 138.561294 
L 201.175674 146.108024 
L 201.408903 147.528699 
L 201.642132 146.985114 
L 202.108589 142.200476 
L 202.341818 136.444696 
L 202.575047 137.415096 
L 202.808276 137.193406 
L 203.041505 135.198823 
L 203.507962 140.823927 
L 203.741191 148.488574 
L 203.97442 150.097959 
L 204.207649 148.093318 
L 204.440878 139.903206 
L 204.674107 138.882816 
L 204.907335 140.753797 
L 205.140564 149.547008 
L 205.373793 144.364906 
L 205.607022 152.806416 
L 205.840251 144.365643 
L 206.07348 145.096526 
L 206.539937 143.727931 
L 206.773166 150.828495 
L 207.006395 145.93037 
L 207.239624 145.361218 
L 207.472853 146.142325 
L 207.706082 143.650121 
L 207.93931 143.633967 
L 208.172539 145.158044 
L 208.405768 145.373164 
L 208.872226 137.389439 
L 209.105455 138.248868 
L 209.338683 143.173433 
L 210.271599 135.370136 
L 210.738056 143.875687 
L 210.971285 144.870115 
L 211.204514 139.888331 
L 211.437743 141.138033 
L 211.904201 129.941711 
L 212.137429 136.678865 
L 212.370658 132.163647 
L 212.603887 131.402293 
L 212.837116 135.477428 
L 213.070345 135.637061 
L 213.303574 136.591999 
L 213.536803 139.015312 
L 213.770031 138.876852 
L 214.00326 141.610044 
L 214.236489 140.129298 
L 214.469718 131.37274 
L 214.702947 143.416286 
L 214.936176 139.844952 
L 215.169404 143.738908 
L 215.402633 140.821137 
L 215.635862 144.539309 
L 215.869091 144.025743 
L 216.10232 146.89537 
L 216.335549 143.213213 
L 216.568777 146.740537 
L 216.802006 147.937621 
L 217.035235 147.461562 
L 217.268464 142.687077 
L 217.501693 143.008673 
L 217.734922 149.045682 
L 218.201379 147.707641 
L 218.434608 145.15703 
L 218.667837 141.303918 
L 218.901066 153.148631 
L 219.134295 147.862734 
L 219.367524 152.20224 
L 219.600752 144.851757 
L 219.833981 147.533534 
L 220.06721 143.712672 
L 220.300439 146.910022 
L 220.766897 139.122929 
L 221.000125 145.49783 
L 221.233354 140.824588 
L 221.466583 144.508277 
L 221.699812 150.574634 
L 222.16627 146.309174 
L 222.399498 148.106869 
L 222.632727 145.025022 
L 222.865956 147.96713 
L 223.099185 144.901504 
L 223.332414 149.350378 
L 223.565643 143.49983 
L 223.798871 145.547093 
L 224.0321 149.850753 
L 224.265329 147.069843 
L 224.498558 142.458011 
L 224.965016 148.74131 
L 225.198245 143.098994 
L 225.664702 155.711541 
L 225.897931 148.675061 
L 226.13116 150.70556 
L 226.364389 144.55332 
L 226.597618 145.365241 
L 226.830846 143.903859 
L 227.064075 151.07017 
L 227.297304 144.972935 
L 227.530533 150.741163 
L 227.996991 138.887633 
L 228.230219 150.730562 
L 228.463448 143.984306 
L 228.696677 149.240283 
L 228.929906 146.690634 
L 229.163135 147.975883 
L 229.396364 144.715065 
L 229.629592 146.238235 
L 229.862821 137.579777 
L 230.09605 145.656857 
L 230.329279 148.821065 
L 230.562508 147.013617 
L 230.795737 146.203227 
L 231.028966 144.707053 
L 231.262194 146.993621 
L 231.495423 146.42168 
L 231.728652 151.747525 
L 231.961881 153.330826 
L 232.19511 145.352092 
L 232.428339 146.879395 
L 232.661567 143.749575 
L 232.894796 145.931751 
L 233.128025 140.666865 
L 233.361254 153.134146 
L 233.594483 155.27344 
L 234.06094 145.768663 
L 234.294169 149.493577 
L 234.527398 141.870401 
L 234.760627 144.80471 
L 234.993856 151.4829 
L 235.227085 147.867668 
L 235.460313 147.782526 
L 235.693542 147.383325 
L 235.926771 141.470865 
L 236.16 142.338201 
L 236.393229 144.410498 
L 236.626458 142.094605 
L 236.859687 151.017412 
L 237.092915 149.653654 
L 237.326144 150.392008 
L 237.792602 144.086707 
L 238.025831 148.509545 
L 238.25906 144.341784 
L 238.492288 143.406478 
L 238.725517 144.844309 
L 239.191975 139.773645 
L 239.425204 145.118589 
L 239.658433 140.818621 
L 239.891661 139.113082 
L 240.358119 142.383268 
L 240.591348 143.408725 
L 240.824577 141.705609 
L 241.291034 147.814684 
L 241.757492 141.443126 
L 241.990721 138.211129 
L 242.22395 146.29541 
L 242.457179 142.126131 
L 242.690408 140.611889 
L 242.923636 147.024507 
L 243.156865 146.079079 
L 243.390094 145.689633 
L 243.623323 143.933302 
L 243.856552 146.954285 
L 244.089781 140.436833 
L 244.323009 144.561927 
L 244.556238 143.532622 
L 244.789467 144.087149 
L 245.022696 147.245359 
L 245.255925 143.888861 
L 245.489154 142.188183 
L 245.955611 147.12926 
L 246.18884 147.072148 
L 246.422069 140.073554 
L 246.888527 137.100218 
L 247.121755 140.220714 
L 247.354984 140.448462 
L 247.821442 147.857827 
L 248.054671 135.61893 
L 248.2879 138.047978 
L 248.521129 134.387981 
L 248.754357 141.455633 
L 248.987586 142.555364 
L 249.220815 146.201167 
L 249.687273 140.139625 
L 249.920502 133.932146 
L 250.386959 143.947502 
L 250.620188 135.808777 
L 250.853417 136.263986 
L 251.086646 133.864846 
L 251.319875 144.444754 
L 251.553103 139.231379 
L 251.786332 143.586612 
L 252.019561 140.718164 
L 252.25279 140.743336 
L 252.486019 141.43702 
L 252.719248 144.979434 
L 252.952476 139.845368 
L 253.418934 147.148696 
L 253.652163 140.83153 
L 253.885392 141.086324 
L 254.118621 139.776414 
L 254.35185 140.345932 
L 254.585078 142.45331 
L 254.818307 137.831591 
L 255.051536 140.226297 
L 255.517994 139.030304 
L 255.751223 144.968399 
L 255.984451 145.862164 
L 256.21768 136.640889 
L 256.450909 142.81251 
L 256.684138 136.51849 
L 256.917367 135.207455 
L 257.150596 137.175458 
L 257.383824 142.434875 
L 257.617053 140.766494 
L 257.850282 143.05558 
L 258.083511 140.079383 
L 258.31674 146.10636 
L 258.549969 138.499143 
L 258.783197 140.76515 
L 259.016426 141.18953 
L 259.249655 144.666623 
L 259.716113 141.068629 
L 259.949342 142.993907 
L 260.182571 143.565694 
L 260.415799 146.201941 
L 260.649028 143.147115 
L 260.882257 143.247265 
L 261.115486 143.564021 
L 261.348715 146.188546 
L 261.581944 143.980634 
L 261.815172 143.768064 
L 262.048401 138.940289 
L 262.28163 144.428363 
L 262.514859 140.245986 
L 262.748088 144.028742 
L 262.981317 142.82452 
L 263.214545 138.055041 
L 263.447774 148.913814 
L 263.681003 137.723936 
L 263.914232 146.981831 
L 264.147461 146.99078 
L 265.080376 136.727401 
L 265.313605 146.559996 
L 265.546834 141.776718 
L 265.780063 147.361652 
L 266.013292 145.285539 
L 266.24652 145.866651 
L 266.479749 149.548363 
L 266.712978 147.916223 
L 266.946207 153.644476 
L 267.179436 144.3638 
L 267.412665 149.798183 
L 267.645893 147.346226 
L 267.879122 146.572486 
L 268.112351 149.329874 
L 268.34558 148.939529 
L 268.578809 151.003913 
L 268.812038 145.991362 
L 269.045266 150.997241 
L 269.278495 141.554712 
L 269.511724 149.032747 
L 269.744953 140.454144 
L 269.978182 139.870792 
L 270.211411 149.443513 
L 270.677868 141.542108 
L 270.911097 144.718102 
L 271.144326 144.404426 
L 271.377555 138.637344 
L 271.610784 145.046908 
L 271.844013 143.964536 
L 272.077241 145.298781 
L 272.31047 143.648886 
L 272.543699 140.974275 
L 272.776928 146.974897 
L 273.010157 145.463826 
L 273.243386 141.64389 
L 273.476614 146.032119 
L 273.709843 135.051157 
L 273.943072 143.068985 
L 274.176301 142.045397 
L 274.40953 141.638159 
L 274.642759 143.71168 
L 274.875987 143.311824 
L 275.109216 141.981732 
L 275.342445 144.618748 
L 275.575674 142.076783 
L 275.808903 145.099351 
L 276.042132 143.974031 
L 276.275361 137.897145 
L 276.508589 140.88858 
L 276.741818 137.245353 
L 277.208276 148.677904 
L 277.441505 148.715428 
L 277.674734 143.003141 
L 277.907962 145.50906 
L 278.141191 140.065719 
L 278.37442 143.610375 
L 278.840878 133.341648 
L 279.074107 136.759283 
L 279.307335 146.573539 
L 279.540564 145.005526 
L 279.773793 141.759749 
L 280.007022 145.784522 
L 280.240251 144.568991 
L 280.47348 140.44594 
L 280.706708 143.621011 
L 280.939937 136.06098 
L 281.173166 141.725219 
L 281.406395 139.808423 
L 281.639624 143.272225 
L 282.106082 134.44163 
L 282.33931 141.710086 
L 282.572539 142.068446 
L 282.805768 145.956884 
L 283.038997 145.644502 
L 283.272226 149.782804 
L 283.738683 140.653497 
L 283.971912 139.323077 
L 284.205141 147.07886 
L 284.43837 145.205084 
L 284.671599 148.290677 
L 284.904828 143.506988 
L 285.138056 142.867988 
L 285.371285 138.914891 
L 285.604514 142.296247 
L 285.837743 141.191501 
L 286.070972 145.074669 
L 286.304201 146.889569 
L 286.537429 142.041212 
L 286.770658 146.689594 
L 287.003887 146.171511 
L 287.237116 140.64387 
L 287.470345 144.861243 
L 287.703574 141.513707 
L 287.936803 141.903045 
L 288.170031 141.951902 
L 288.40326 142.833575 
L 288.636489 139.234569 
L 288.869718 143.670469 
L 289.102947 142.48058 
L 289.336176 143.517209 
L 289.569404 146.140938 
L 289.802633 141.728721 
L 290.035862 143.831216 
L 290.269091 144.77378 
L 290.735549 141.610495 
L 290.968777 141.409973 
L 291.202006 142.422298 
L 291.435235 150.600496 
L 291.668464 147.500292 
L 291.901693 153.91826 
L 292.134922 147.29779 
L 292.36815 146.132068 
L 292.601379 148.198524 
L 292.834608 146.156624 
L 293.067837 147.363981 
L 293.301066 149.682324 
L 293.534295 149.470666 
L 293.767524 152.984467 
L 294.000752 141.591311 
L 294.233981 147.216748 
L 294.46721 144.937267 
L 294.700439 140.531325 
L 294.933668 138.99439 
L 295.166897 147.438077 
L 295.400125 146.722931 
L 295.633354 144.367047 
L 295.866583 146.202667 
L 296.099812 152.267701 
L 296.333041 147.428536 
L 296.56627 149.336467 
L 297.032727 155.15566 
L 297.265956 148.005432 
L 297.499185 152.654472 
L 297.732414 148.596161 
L 297.965643 148.016495 
L 298.198871 147.094088 
L 298.4321 148.915923 
L 298.665329 145.465925 
L 298.898558 145.783062 
L 299.131787 145.47898 
L 299.365016 145.73502 
L 299.598245 148.192051 
L 299.831473 147.850401 
L 300.064702 141.999268 
L 300.297931 144.835593 
L 300.53116 144.041194 
L 300.997618 148.555015 
L 301.230846 145.276153 
L 301.464075 145.443042 
L 301.697304 142.883257 
L 301.930533 144.990727 
L 302.163762 138.600132 
L 302.396991 148.056422 
L 302.630219 149.409731 
L 302.863448 140.251277 
L 303.096677 145.245183 
L 303.329906 142.707489 
L 303.563135 148.759295 
L 303.796364 146.887057 
L 304.029592 146.258892 
L 304.262821 148.013456 
L 304.729279 145.168686 
L 305.195737 145.718286 
L 305.428966 147.131956 
L 305.662194 151.273611 
L 305.895423 145.562811 
L 306.128652 146.09949 
L 306.361881 139.644128 
L 306.59511 139.533411 
L 306.828339 143.339014 
L 307.061567 144.262532 
L 307.294796 143.58951 
L 307.528025 146.011055 
L 307.761254 141.535429 
L 307.994483 146.328266 
L 308.227712 142.36025 
L 308.46094 145.670608 
L 308.694169 142.142782 
L 308.927398 143.854185 
L 309.160627 144.152302 
L 309.393856 140.162656 
L 309.627085 142.693117 
L 309.860313 137.520932 
L 310.093542 142.268343 
L 310.326771 143.36161 
L 310.56 136.532966 
L 310.793229 143.730846 
L 311.026458 134.256851 
L 311.259687 143.351995 
L 311.492915 140.469965 
L 311.726144 141.039839 
L 311.959373 140.746814 
L 312.192602 144.207676 
L 312.65906 137.766127 
L 312.892288 145.950481 
L 313.125517 138.854719 
L 313.358746 146.620312 
L 313.591975 145.54704 
L 313.825204 141.786623 
L 314.058433 147.004109 
L 314.291661 143.835905 
L 314.52489 142.777571 
L 314.758119 143.910079 
L 314.991348 141.634325 
L 315.224577 142.844651 
L 315.457806 141.988823 
L 316.157492 137.012238 
L 316.390721 138.033935 
L 316.62395 144.820762 
L 316.857179 147.214607 
L 317.323636 141.870588 
L 317.556865 142.839882 
L 317.790094 148.747357 
L 318.023323 145.111308 
L 318.256552 143.961963 
L 318.489781 148.538323 
L 318.723009 143.676605 
L 318.956238 141.437985 
L 319.189467 141.860588 
L 319.422696 151.226942 
L 319.655925 139.154993 
L 319.889154 141.748308 
L 320.122382 142.433501 
L 320.355611 144.320211 
L 320.58884 142.620922 
L 320.822069 151.673335 
L 321.055298 146.397661 
L 321.288527 147.798727 
L 321.521755 138.106485 
L 321.988213 152.986549 
L 322.221442 145.226313 
L 322.454671 146.301182 
L 322.6879 146.184157 
L 323.154357 144.249136 
L 323.387586 148.83243 
L 323.620815 146.423091 
L 323.854044 148.928743 
L 324.087273 148.004855 
L 324.55373 153.416507 
L 324.786959 145.991019 
L 325.020188 144.207254 
L 325.486646 138.716263 
L 325.719875 146.82045 
L 325.953103 145.205329 
L 326.186332 144.459843 
L 326.419561 137.940447 
L 326.65279 144.001504 
L 326.886019 145.190405 
L 327.119248 152.551192 
L 327.352476 146.463287 
L 327.585705 145.655793 
L 327.818934 150.540229 
L 328.052163 146.396555 
L 328.285392 146.615475 
L 328.518621 151.292354 
L 328.75185 146.002869 
L 328.985078 147.191229 
L 329.218307 144.619359 
L 329.451536 143.497205 
L 329.684765 136.24583 
L 330.151223 150.712633 
L 330.384451 141.378497 
L 330.61768 144.626292 
L 330.850909 151.37425 
L 331.084138 148.850874 
L 331.317367 148.531886 
L 331.550596 148.634109 
L 331.783824 150.000598 
L 332.017053 147.610553 
L 332.250282 142.034062 
L 332.483511 144.215298 
L 332.71674 141.833228 
L 332.949969 148.503541 
L 333.183197 149.070514 
L 333.416426 143.532767 
L 333.649655 141.48194 
L 333.882884 144.037059 
L 334.116113 148.153773 
L 334.349342 149.820352 
L 334.582571 152.835172 
L 334.815799 150.186647 
L 335.049028 144.124673 
L 335.282257 150.081721 
L 335.515486 152.401103 
L 335.981944 149.397286 
L 336.215172 148.058558 
L 336.448401 150.653525 
L 336.68163 147.43278 
L 336.914859 148.531287 
L 337.148088 135.943362 
L 337.614545 149.43669 
L 337.847774 146.476598 
L 338.081003 146.819519 
L 338.314232 146.834652 
L 339.013918 143.751248 
L 339.247147 139.850232 
L 339.480376 145.549563 
L 339.713605 145.525896 
L 339.946834 141.589472 
L 340.64652 152.938236 
L 341.112978 148.541749 
L 341.579436 142.822735 
L 341.812665 146.407798 
L 342.045893 138.832034 
L 342.279122 139.985812 
L 342.74558 145.328104 
L 342.978809 141.523356 
L 343.212038 145.517227 
L 343.445266 141.151362 
L 343.678495 145.610284 
L 343.911724 146.002107 
L 344.144953 146.933331 
L 344.611411 137.888479 
L 344.844639 147.27478 
L 345.077868 146.686182 
L 345.311097 149.543727 
L 345.544326 148.527768 
L 345.777555 148.414591 
L 346.010784 145.856272 
L 346.244013 144.613518 
L 346.477241 150.787238 
L 346.71047 147.422203 
L 346.943699 147.796474 
L 347.176928 141.624867 
L 347.410157 146.643449 
L 347.643386 146.247688 
L 347.876614 144.188875 
L 348.109843 143.814576 
L 348.343072 144.25042 
L 348.576301 145.154616 
L 348.80953 147.204886 
L 349.042759 139.180281 
L 349.275987 139.149605 
L 349.742445 147.540474 
L 349.975674 147.531391 
L 350.208903 155.282737 
L 350.442132 142.071677 
L 350.675361 147.292231 
L 350.908589 147.133185 
L 351.141818 145.575356 
L 351.608276 151.733636 
L 351.841505 149.108235 
L 352.074734 152.551253 
L 352.307962 144.584484 
L 352.541191 145.255612 
L 352.77442 143.665188 
L 353.007649 141.280938 
L 353.240878 145.805485 
L 353.474107 144.965631 
L 353.707335 144.77936 
L 353.940564 147.767859 
L 354.173793 143.755581 
L 354.407022 149.87789 
L 354.640251 148.407814 
L 354.87348 150.21497 
L 355.106708 154.270877 
L 355.339937 154.722433 
L 355.806395 143.763286 
L 356.039624 141.544036 
L 356.272853 144.64529 
L 356.506082 143.772439 
L 356.73931 140.938181 
L 357.205768 149.428788 
L 357.438997 146.811011 
L 357.672226 152.435513 
L 357.905455 143.960689 
L 358.138683 140.698224 
L 358.371912 147.797017 
L 358.605141 141.230681 
L 358.83837 142.258026 
L 359.071599 144.439068 
L 359.304828 145.016965 
L 359.538056 141.14502 
L 360.004514 150.887048 
L 360.237743 147.934975 
L 360.470972 146.862392 
L 360.704201 148.14097 
L 360.937429 147.665119 
L 361.170658 138.261389 
L 361.637116 147.125668 
L 361.870345 138.878873 
L 362.103574 145.868988 
L 362.336803 145.618601 
L 362.570031 143.205434 
L 362.80326 142.995789 
L 363.036489 141.07932 
L 363.269718 141.396773 
L 363.502947 146.929524 
L 363.736176 144.013488 
L 363.969404 150.023006 
L 364.202633 146.915626 
L 364.435862 148.068699 
L 364.669091 142.364094 
L 364.90232 148.363023 
L 365.135549 145.944748 
L 365.368777 148.200173 
L 365.835235 137.490087 
L 366.068464 147.611631 
L 366.301693 147.056298 
L 366.534922 142.894567 
L 366.76815 146.45474 
L 367.001379 141.083444 
L 367.234608 140.152843 
L 367.467837 144.436703 
L 367.701066 145.932806 
L 367.934295 143.615836 
L 368.167524 143.171461 
L 368.400752 143.366976 
L 368.633981 146.325469 
L 368.86721 144.765276 
L 369.100439 140.510728 
L 369.333668 140.478789 
L 370.033354 147.847848 
L 370.266583 152.546589 
L 370.733041 142.267231 
L 370.96627 142.118793 
L 371.199498 142.734777 
L 371.432727 144.571296 
L 371.665956 149.637051 
L 371.899185 139.783083 
L 372.132414 148.839114 
L 372.365643 151.097875 
L 372.598871 146.48796 
L 372.8321 145.92609 
L 373.065329 146.252315 
L 373.298558 142.490241 
L 373.531787 145.337608 
L 373.765016 144.593691 
L 373.998245 143.412601 
L 374.231473 140.626459 
L 374.464702 141.536843 
L 374.697931 146.875068 
L 374.93116 148.459433 
L 375.164389 154.484269 
L 375.397618 146.129929 
L 375.630846 143.147635 
L 375.864075 151.424567 
L 376.097304 141.003533 
L 376.330533 139.967014 
L 376.563762 145.494693 
L 376.796991 142.552268 
L 377.030219 149.881487 
L 377.263448 141.190241 
L 377.496677 137.506199 
L 377.729906 138.32369 
L 377.963135 140.405205 
L 378.429592 142.058578 
L 378.662821 141.330953 
L 378.89605 146.09695 
L 379.362508 143.193486 
L 379.595737 145.897035 
L 379.828966 145.792903 
L 380.062194 143.208289 
L 380.295423 143.770149 
L 380.528652 142.536895 
L 380.761881 138.766868 
L 380.99511 152.405436 
L 381.228339 152.89655 
L 381.461567 146.310189 
L 381.694796 150.063904 
L 381.928025 144.904131 
L 382.161254 148.514267 
L 382.86094 140.71575 
L 383.094169 143.126855 
L 383.560627 138.848272 
L 383.793856 143.892736 
L 384.027085 143.867279 
L 384.260313 138.996923 
L 384.493542 136.959209 
L 384.726771 137.386081 
L 384.96 139.659894 
L 385.426458 135.755854 
L 385.659687 140.921636 
L 386.126144 145.763271 
L 386.359373 137.04212 
L 386.592602 149.97289 
L 387.05906 142.244722 
L 387.292288 142.711892 
L 387.525517 146.157413 
L 387.758746 147.477722 
L 387.991975 142.82555 
L 388.225204 145.480769 
L 388.458433 145.690596 
L 388.691661 150.210146 
L 389.158119 146.514145 
L 389.391348 141.984108 
L 389.624577 142.765152 
L 389.857806 144.153154 
L 390.091034 147.640961 
L 390.557492 144.406755 
L 390.790721 140.263786 
L 391.02395 140.217042 
L 391.257179 139.19953 
L 391.723636 133.674037 
L 392.190094 142.986671 
L 392.423323 145.445791 
L 392.656552 149.391256 
L 392.889781 144.177663 
L 393.123009 141.606108 
L 393.356238 145.624183 
L 393.822696 138.097601 
L 394.055925 142.274578 
L 394.289154 131.452767 
L 394.522382 135.703386 
L 394.755611 137.773695 
L 394.98884 148.784521 
L 395.222069 140.632297 
L 395.455298 140.641767 
L 396.154984 135.563205 
L 396.388213 139.767816 
L 396.621442 146.026617 
L 396.854671 142.510118 
L 397.0879 141.396528 
L 397.554357 133.085626 
L 397.787586 139.163816 
L 398.020815 137.608942 
L 398.487273 131.917559 
L 398.487273 131.917559 
" style="fill:none;stroke:#008000;stroke-dasharray:9.6,2.4,1.5,2.4;stroke-dashoffset:0;stroke-width:1.5;"/>
   </g>
   <g id="line2d_21">
    <path clip-path="url(#pdc4556af18)" d="M 73.832727 220.885643 
L 74.065956 165.627229 
L 74.299185 160.765094 
L 74.765643 160.765094 
L 74.998871 140.841703 
L 75.465329 140.841703 
L 75.698558 135.686945 
L 76.631473 135.686945 
L 76.864702 116.186716 
L 80.363135 116.186716 
L 80.596364 107.187593 
L 86.193856 107.187593 
L 86.427085 84.085984 
L 168.756865 84.085984 
L 168.990094 78.025699 
L 181.584451 78.025699 
L 181.81768 77.030048 
L 212.370658 77.030048 
L 212.603887 76.605602 
L 298.665329 76.605602 
L 298.898558 74.294958 
L 329.451536 74.294958 
L 329.684765 72.776442 
L 342.74558 72.776442 
L 342.978809 68.787295 
L 398.254044 68.787295 
L 398.487273 53.568 
L 398.487273 53.568 
" style="fill:none;stroke:#ff0000;stroke-linecap:square;stroke-width:1.5;"/>
   </g>
   <g id="patch_3">
    <path d="M 57.6 307.584 
L 57.6 41.472 
" style="fill:none;stroke:#000000;stroke-linecap:square;stroke-linejoin:miter;stroke-width:0.8;"/>
   </g>
   <g id="patch_4">
    <path d="M 414.72 307.584 
L 414.72 41.472 
" style="fill:none;stroke:#000000;stroke-linecap:square;stroke-linejoin:miter;stroke-width:0.8;"/>
   </g>
   <g id="patch_5">
    <path d="M 57.6 307.584 
L 414.72 307.584 
" style="fill:none;stroke:#000000;stroke-linecap:square;stroke-linejoin:miter;stroke-width:0.8;"/>
   </g>
   <g id="patch_6">
    <path d="M 57.6 41.472 
L 414.72 41.472 
" style="fill:none;stroke:#000000;stroke-linecap:square;stroke-linejoin:miter;stroke-width:0.8;"/>
   </g>
   <g id="text_12">
    <!-- Population's average and best fitness -->
    <g transform="translate(123.529687 35.472)scale(0.12 -0.12)">
     <defs>
      <path d="M 19.671875 64.796875 
L 19.671875 37.40625 
L 32.078125 37.40625 
Q 38.96875 37.40625 42.71875 40.96875 
Q 46.484375 44.53125 46.484375 51.125 
Q 46.484375 57.671875 42.71875 61.234375 
Q 38.96875 64.796875 32.078125 64.796875 
z
M 9.8125 72.90625 
L 32.078125 72.90625 
Q 44.34375 72.90625 50.609375 67.359375 
Q 56.890625 61.8125 56.890625 51.125 
Q 56.890625 40.328125 50.609375 34.8125 
Q 44.34375 29.296875 32.078125 29.296875 
L 19.671875 29.296875 
L 19.671875 0 
L 9.8125 0 
z
" id="DejaVuSans-80"/>
      <path d="M 18.109375 8.203125 
L 18.109375 -20.796875 
L 9.078125 -20.796875 
L 9.078125 54.6875 
L 18.109375 54.6875 
L 18.109375 46.390625 
Q 20.953125 51.265625 25.265625 53.625 
Q 29.59375 56 35.59375 56 
Q 45.5625 56 51.78125 48.09375 
Q 58.015625 40.1875 58.015625 27.296875 
Q 58.015625 14.40625 51.78125 6.484375 
Q 45.5625 -1.421875 35.59375 -1.421875 
Q 29.59375 -1.421875 25.265625 0.953125 
Q 20.953125 3.328125 18.109375 8.203125 
z
M 48.6875 27.296875 
Q 48.6875 37.203125 44.609375 42.84375 
Q 40.53125 48.484375 33.40625 48.484375 
Q 26.265625 48.484375 22.1875 42.84375 
Q 18.109375 37.203125 18.109375 27.296875 
Q 18.109375 17.390625 22.1875 11.75 
Q 26.265625 6.109375 33.40625 6.109375 
Q 40.53125 6.109375 44.609375 11.75 
Q 48.6875 17.390625 48.6875 27.296875 
z
" id="DejaVuSans-112"/>
      <path d="M 8.5 21.578125 
L 8.5 54.6875 
L 17.484375 54.6875 
L 17.484375 21.921875 
Q 17.484375 14.15625 20.5 10.265625 
Q 23.53125 6.390625 29.59375 6.390625 
Q 36.859375 6.390625 41.078125 11.03125 
Q 45.3125 15.671875 45.3125 23.6875 
L 45.3125 54.6875 
L 54.296875 54.6875 
L 54.296875 0 
L 45.3125 0 
L 45.3125 8.40625 
Q 42.046875 3.421875 37.71875 1 
Q 33.40625 -1.421875 27.6875 -1.421875 
Q 18.265625 -1.421875 13.375 4.4375 
Q 8.5 10.296875 8.5 21.578125 
z
M 31.109375 56 
z
" id="DejaVuSans-117"/>
      <path d="M 9.421875 75.984375 
L 18.40625 75.984375 
L 18.40625 0 
L 9.421875 0 
z
" id="DejaVuSans-108"/>
      <path d="M 17.921875 72.90625 
L 17.921875 45.796875 
L 9.625 45.796875 
L 9.625 72.90625 
z
" id="DejaVuSans-39"/>
      <path id="DejaVuSans-32"/>
      <path d="M 2.984375 54.6875 
L 12.5 54.6875 
L 29.59375 8.796875 
L 46.6875 54.6875 
L 56.203125 54.6875 
L 35.6875 0 
L 23.484375 0 
z
" id="DejaVuSans-118"/>
      <path d="M 45.40625 27.984375 
Q 45.40625 37.75 41.375 43.109375 
Q 37.359375 48.484375 30.078125 48.484375 
Q 22.859375 48.484375 18.828125 43.109375 
Q 14.796875 37.75 14.796875 27.984375 
Q 14.796875 18.265625 18.828125 12.890625 
Q 22.859375 7.515625 30.078125 7.515625 
Q 37.359375 7.515625 41.375 12.890625 
Q 45.40625 18.265625 45.40625 27.984375 
z
M 54.390625 6.78125 
Q 54.390625 -7.171875 48.1875 -13.984375 
Q 42 -20.796875 29.203125 -20.796875 
Q 24.46875 -20.796875 20.265625 -20.09375 
Q 16.0625 -19.390625 12.109375 -17.921875 
L 12.109375 -9.1875 
Q 16.0625 -11.328125 19.921875 -12.34375 
Q 23.78125 -13.375 27.78125 -13.375 
Q 36.625 -13.375 41.015625 -8.765625 
Q 45.40625 -4.15625 45.40625 5.171875 
L 45.40625 9.625 
Q 42.625 4.78125 38.28125 2.390625 
Q 33.9375 0 27.875 0 
Q 17.828125 0 11.671875 7.65625 
Q 5.515625 15.328125 5.515625 27.984375 
Q 5.515625 40.671875 11.671875 48.328125 
Q 17.828125 56 27.875 56 
Q 33.9375 56 38.28125 53.609375 
Q 42.625 51.21875 45.40625 46.390625 
L 45.40625 54.6875 
L 54.390625 54.6875 
z
" id="DejaVuSans-103"/>
      <path d="M 45.40625 46.390625 
L 45.40625 75.984375 
L 54.390625 75.984375 
L 54.390625 0 
L 45.40625 0 
L 45.40625 8.203125 
Q 42.578125 3.328125 38.25 0.953125 
Q 33.9375 -1.421875 27.875 -1.421875 
Q 17.96875 -1.421875 11.734375 6.484375 
Q 5.515625 14.40625 5.515625 27.296875 
Q 5.515625 40.1875 11.734375 48.09375 
Q 17.96875 56 27.875 56 
Q 33.9375 56 38.25 53.625 
Q 42.578125 51.265625 45.40625 46.390625 
z
M 14.796875 27.296875 
Q 14.796875 17.390625 18.875 11.75 
Q 22.953125 6.109375 30.078125 6.109375 
Q 37.203125 6.109375 41.296875 11.75 
Q 45.40625 17.390625 45.40625 27.296875 
Q 45.40625 37.203125 41.296875 42.84375 
Q 37.203125 48.484375 30.078125 48.484375 
Q 22.953125 48.484375 18.875 42.84375 
Q 14.796875 37.203125 14.796875 27.296875 
z
" id="DejaVuSans-100"/>
      <path d="M 48.6875 27.296875 
Q 48.6875 37.203125 44.609375 42.84375 
Q 40.53125 48.484375 33.40625 48.484375 
Q 26.265625 48.484375 22.1875 42.84375 
Q 18.109375 37.203125 18.109375 27.296875 
Q 18.109375 17.390625 22.1875 11.75 
Q 26.265625 6.109375 33.40625 6.109375 
Q 40.53125 6.109375 44.609375 11.75 
Q 48.6875 17.390625 48.6875 27.296875 
z
M 18.109375 46.390625 
Q 20.953125 51.265625 25.265625 53.625 
Q 29.59375 56 35.59375 56 
Q 45.5625 56 51.78125 48.09375 
Q 58.015625 40.1875 58.015625 27.296875 
Q 58.015625 14.40625 51.78125 6.484375 
Q 45.5625 -1.421875 35.59375 -1.421875 
Q 29.59375 -1.421875 25.265625 0.953125 
Q 20.953125 3.328125 18.109375 8.203125 
L 18.109375 0 
L 9.078125 0 
L 9.078125 75.984375 
L 18.109375 75.984375 
z
" id="DejaVuSans-98"/>
      <path d="M 37.109375 75.984375 
L 37.109375 68.5 
L 28.515625 68.5 
Q 23.6875 68.5 21.796875 66.546875 
Q 19.921875 64.59375 19.921875 59.515625 
L 19.921875 54.6875 
L 34.71875 54.6875 
L 34.71875 47.703125 
L 19.921875 47.703125 
L 19.921875 0 
L 10.890625 0 
L 10.890625 47.703125 
L 2.296875 47.703125 
L 2.296875 54.6875 
L 10.890625 54.6875 
L 10.890625 58.5 
Q 10.890625 67.625 15.140625 71.796875 
Q 19.390625 75.984375 28.609375 75.984375 
z
" id="DejaVuSans-102"/>
     </defs>
     <use xlink:href="#DejaVuSans-80"/>
     <use x="56.677734" xlink:href="#DejaVuSans-111"/>
     <use x="117.859375" xlink:href="#DejaVuSans-112"/>
     <use x="181.335938" xlink:href="#DejaVuSans-117"/>
     <use x="244.714844" xlink:href="#DejaVuSans-108"/>
     <use x="272.498047" xlink:href="#DejaVuSans-97"/>
     <use x="333.777344" xlink:href="#DejaVuSans-116"/>
     <use x="372.986328" xlink:href="#DejaVuSans-105"/>
     <use x="400.769531" xlink:href="#DejaVuSans-111"/>
     <use x="461.951172" xlink:href="#DejaVuSans-110"/>
     <use x="525.330078" xlink:href="#DejaVuSans-39"/>
     <use x="552.820312" xlink:href="#DejaVuSans-115"/>
     <use x="604.919922" xlink:href="#DejaVuSans-32"/>
     <use x="636.707031" xlink:href="#DejaVuSans-97"/>
     <use x="697.986328" xlink:href="#DejaVuSans-118"/>
     <use x="757.166016" xlink:href="#DejaVuSans-101"/>
     <use x="818.689453" xlink:href="#DejaVuSans-114"/>
     <use x="859.802734" xlink:href="#DejaVuSans-97"/>
     <use x="921.082031" xlink:href="#DejaVuSans-103"/>
     <use x="984.558594" xlink:href="#DejaVuSans-101"/>
     <use x="1046.082031" xlink:href="#DejaVuSans-32"/>
     <use x="1077.869141" xlink:href="#DejaVuSans-97"/>
     <use x="1139.148438" xlink:href="#DejaVuSans-110"/>
     <use x="1202.527344" xlink:href="#DejaVuSans-100"/>
     <use x="1266.003906" xlink:href="#DejaVuSans-32"/>
     <use x="1297.791016" xlink:href="#DejaVuSans-98"/>
     <use x="1361.267578" xlink:href="#DejaVuSans-101"/>
     <use x="1422.791016" xlink:href="#DejaVuSans-115"/>
     <use x="1474.890625" xlink:href="#DejaVuSans-116"/>
     <use x="1514.099609" xlink:href="#DejaVuSans-32"/>
     <use x="1545.886719" xlink:href="#DejaVuSans-102"/>
     <use x="1581.091797" xlink:href="#DejaVuSans-105"/>
     <use x="1608.875" xlink:href="#DejaVuSans-116"/>
     <use x="1648.083984" xlink:href="#DejaVuSans-110"/>
     <use x="1711.462891" xlink:href="#DejaVuSans-101"/>
     <use x="1772.986328" xlink:href="#DejaVuSans-115"/>
     <use x="1825.085938" xlink:href="#DejaVuSans-115"/>
    </g>
   </g>
   <g id="legend_1">
    <g id="patch_7">
     <path d="M 334.779375 302.584 
L 407.72 302.584 
Q 409.72 302.584 409.72 300.584 
L 409.72 257.549625 
Q 409.72 255.549625 407.72 255.549625 
L 334.779375 255.549625 
Q 332.779375 255.549625 332.779375 257.549625 
L 332.779375 300.584 
Q 332.779375 302.584 334.779375 302.584 
z
" style="fill:#ffffff;opacity:0.8;stroke:#cccccc;stroke-linejoin:miter;"/>
    </g>
    <g id="line2d_22">
     <path d="M 336.779375 263.648062 
L 356.779375 263.648062 
" style="fill:none;stroke:#0000ff;stroke-linecap:square;stroke-width:1.5;"/>
    </g>
    <g id="line2d_23"/>
    <g id="text_13">
     <!-- average -->
     <g transform="translate(364.779375 267.148062)scale(0.1 -0.1)">
      <use xlink:href="#DejaVuSans-97"/>
      <use x="61.279297" xlink:href="#DejaVuSans-118"/>
      <use x="120.458984" xlink:href="#DejaVuSans-101"/>
      <use x="181.982422" xlink:href="#DejaVuSans-114"/>
      <use x="223.095703" xlink:href="#DejaVuSans-97"/>
      <use x="284.375" xlink:href="#DejaVuSans-103"/>
      <use x="347.851562" xlink:href="#DejaVuSans-101"/>
     </g>
    </g>
    <g id="line2d_24">
     <path d="M 336.779375 278.326188 
L 356.779375 278.326188 
" style="fill:none;stroke:#008000;stroke-dasharray:9.6,2.4,1.5,2.4;stroke-dashoffset:0;stroke-width:1.5;"/>
    </g>
    <g id="line2d_25"/>
    <g id="text_14">
     <!-- +1 sd -->
     <g transform="translate(364.779375 281.826188)scale(0.1 -0.1)">
      <defs>
       <path d="M 46 62.703125 
L 46 35.5 
L 73.1875 35.5 
L 73.1875 27.203125 
L 46 27.203125 
L 46 0 
L 37.796875 0 
L 37.796875 27.203125 
L 10.59375 27.203125 
L 10.59375 35.5 
L 37.796875 35.5 
L 37.796875 62.703125 
z
" id="DejaVuSans-43"/>
      </defs>
      <use xlink:href="#DejaVuSans-43"/>
      <use x="83.789062" xlink:href="#DejaVuSans-49"/>
      <use x="147.412109" xlink:href="#DejaVuSans-32"/>
      <use x="179.199219" xlink:href="#DejaVuSans-115"/>
      <use x="231.298828" xlink:href="#DejaVuSans-100"/>
     </g>
    </g>
    <g id="line2d_26">
     <path d="M 336.779375 293.004312 
L 356.779375 293.004312 
" style="fill:none;stroke:#ff0000;stroke-linecap:square;stroke-width:1.5;"/>
    </g>
    <g id="line2d_27"/>
    <g id="text_15">
     <!-- best -->
     <g transform="translate(364.779375 296.504312)scale(0.1 -0.1)">
      <use xlink:href="#DejaVuSans-98"/>
      <use x="63.476562" xlink:href="#DejaVuSans-101"/>
      <use x="125" xlink:href="#DejaVuSans-115"/>
      <use x="177.099609" xlink:href="#DejaVuSans-116"/>
     </g>
    </g>
   </g>
  </g>
 </g>
 <defs>
  <clipPath id="pdc4556af18">
   <rect height="266.112" width="357.12" x="57.6" y="41.472"/>
  </clipPath>
 </defs>
</svg>
